<svg
  version="1.1"
  id="Layer_1"
  xmlns="http://www.w3.org/2000/svg"
  xmlns:xlink="http://www.w3.org/1999/xlink"
  x="0px"
  y="0px"
  viewBox="0 0 1200 1200"
  enable-background="new 0 0 1200 1200"
  xml:space="preserve"
  class="disquet"
>
  <g>
    <path
      fill="none"
      d="M313.572,421.667H193.14c88.451,0.024,184.036-0.041,272.486,0.131c62.235,0.12,124.47,0.583,186.706,0.858&#10;&#9;&#9;c2.129,0.009,4.088-0.204,5.903-0.589c-24.059-0.118-48.118-0.223-72.177-0.269C497.607,421.626,402.022,421.691,313.572,421.667z"
    />
    <path
      fill="#47525B"
      d="M1142.642,106.379c-18.578-17.134-37.211-34.225-56.348-50.724c-3.347-2.885-9.111-4.189-13.753-4.174&#10;&#9;&#9;c-92.667,0.294-185.334,0.633-278.002,0.955c-0.247,48.118-0.53,108.97-0.709,155.221c-0.252,64.747-0.459,129.493-0.595,194.239&#10;&#9;&#9;c-0.028,13.161-7.304,20.816-20.472,20.759c-38.176-0.168-76.352-0.401-114.529-0.589c-1.815,0.385-3.773,0.598-5.903,0.589&#10;&#9;&#9;c-62.235-0.274-124.47-0.737-186.706-0.858c-88.45-0.172-184.036-0.107-272.486-0.131c-8.365-0.003-21.872-13.145-23.295-23.723&#10;&#9;&#9;c-1.173-8.718-1.421-17.585-1.682-26.398c-2.884-97.267-1.55-192.95-1.378-291.806c-0.005-0.16-0.009-0.366-0.013-0.597&#10;&#9;&#9;c-0.078-4.101-0.091-18.29-0.14-24.427c-0.006-0.683-0.011-1.297-0.018-1.754h0.018c0-0.009,0-0.02,0-0.029&#10;&#9;&#9;c-27.953,0.105-55.906,0.207-83.858,0.313c-8.734,0.033-17.467,0.105-26.891,0.162c-0.412,67.385-0.82,135.786-1.234,203.37&#10;&#9;&#9;v893.141c1.432,0.06,3.114,0.074,5.178,0.082l106.501-0.008V660.878V558.233v-0.702c0-18.013,14.603-32.616,32.616-32.616h0.702&#10;&#9;&#9;h790.661h0.703c18.014,0,32.616,14.603,32.616,32.616v0.702v102.645v489.114h112.801c0.375-3.574,0.767-6.072,0.783-8.562&#10;&#9;&#9;c1.527-224.353,2.865-448.707,4.572-673.058c0.899-118.188,2.452-236.371,3.567-354.557&#10;&#9;&#9;C1145.374,111.304,1144.386,107.988,1142.642,106.379z M88.954,1071.54c0.163-9.54,0.248-17.935,0.42-28.018&#10;&#9;&#9;c14.525,0.087,27.725,0.153,41.871,0.238c0.027,9.615,0.051,18.536,0.078,28.255C116.971,1072.047,103.378,1072.015,88.954,1071.54&#10;&#9;&#9;z M1106.61,1067.406h-44.501v-30.584h44.501V1067.406z"
      style="fill: rgb(71, 82, 91)"
    />
    <path
      fill="#4F87BA"
      d="M89.375,1043.522c-0.172,10.083-0.258,18.478-0.42,28.018c14.424,0.475,28.017,0.507,42.37,0.474&#10;&#9;&#9;c-0.027-9.72-0.052-18.64-0.078-28.255C117.099,1043.674,103.899,1043.609,89.375,1043.522z"
      style="fill: rgb(71, 82, 91)"
    />
    <path
      fill="#4F87BA"
      d="M166.632,54.715c0.049,6.137,0.063,20.326,0.14,24.427c0.004,0.231,0.009,0.438,0.013,0.597&#10;&#9;&#9;c-0.172,98.856-1.506,194.539,1.378,291.806c0.261,8.813,0.509,17.68,1.682,26.398c1.423,10.578,14.93,23.721,23.295,23.723&#10;&#9;&#9;h120.431c-8.365-0.003-21.872-13.145-23.295-23.723c-1.173-8.718-1.421-17.585-1.682-26.398&#10;&#9;&#9;c-2.884-97.267-1.549-192.95-1.378-291.806c-0.099-3.431-0.103-21.989-0.172-26.779H166.632h-0.018&#10;&#9;&#9;C166.621,53.418,166.626,54.032,166.632,54.715z"
      style="fill: rgb(71, 82, 91)"
    />
    <path
      fill="#E7ECF2"
      d="M288.595,371.546c0.261,8.813,0.509,17.68,1.682,26.398c1.423,10.578,14.93,23.721,23.295,23.723&#10;&#9;&#9;c88.45,0.024,184.036-0.041,272.486,0.131c24.059,0.047,48.118,0.151,72.177,0.269c38.177,0.188,76.352,0.42,114.529,0.589&#10;&#9;&#9;c13.168,0.058,20.444-7.598,20.472-20.759c0.136-64.747,0.344-129.493,0.595-194.239c0.179-46.251,0.463-107.103,0.709-155.221&#10;&#9;&#9;c0.004-0.806,0.008-1.637,0.013-2.436c-40.222,0.235-80.355,0.469-120.435,0.703c-129.32,0.754-258.046,1.505-387.072,2.258&#10;&#9;&#9;c0.068,4.79,0.072,23.348,0.172,26.779C287.045,178.595,285.711,274.278,288.595,371.546z M573.858,116.102&#10;&#9;&#9;c-0.54-6.853,2.555-10.161,9.242-10.162c43.294-0.004,84.805,0.046,128.1,0.062c8.298,0.003,11.508,3.831,11.495,12.351&#10;&#9;&#9;c-0.128,87.855,0.11,175.709-0.031,263.564c-0.009,5.654,2.7,13.099-6.133,16.62c-5.166,0.231-10.838,0.701-16.51,0.702&#10;&#9;&#9;c-37.283,0.008-74.566-0.05-111.849-0.168c-11.645-0.037-12.849-1.322-12.921-13.098c-0.5-80.814-0.93-161.628-1.53-242.442&#10;&#9;&#9;C573.653,134.384,574.578,125.234,573.858,116.102z"
      style="fill: rgb(231, 236, 242)"
    />
    <path
      fill="#47525B"
      d="M575.251,385.974c0.073,11.777,1.276,13.062,12.921,13.098c37.283,0.118,74.566,0.176,111.849,0.168&#10;&#9;&#9;c5.672-0.001,11.344-0.471,16.51-0.702c8.833-3.521,6.124-10.966,6.133-16.62c0.141-87.855-0.097-175.71,0.031-263.564&#10;&#9;&#9;c0.013-8.52-3.197-12.348-11.495-12.351c-43.295-0.016-84.806-0.066-128.1-0.062c-6.686,0-9.782,3.308-9.242,10.162&#10;&#9;&#9;c0.72,9.132-0.205,18.283-0.137,27.431C574.321,224.346,574.751,305.16,575.251,385.974z"
      style="fill: rgb(71, 82, 91)"
    />
    <path
      fill="#E7ECF2"
      d="M166.329,660.878v489.114H227.6h229.987h31.046h27.816h507.178V660.878H166.329z M959.101,1071.865H233.627&#10;&#9;&#9;v-8.919h725.474V1071.865z M959.101,967.694H233.627v-8.919h725.474V967.694z M959.101,867.768H233.627v-8.918h725.474V867.768z&#10;&#9;&#9; M959.101,766.183H233.627v-8.919h725.474V766.183z"
      style="fill: rgb(231, 236, 242)"
    />
    <path
      fill="#A0273C"
      d="M1023.627,558.233v-0.702c0-18.013-14.603-32.616-32.616-32.616h-0.703H199.647h-0.702&#10;&#9;&#9;c-18.014,0-32.616,14.603-32.616,32.616v0.702v102.645h857.298V558.233z"
      style="fill: rgb(171, 38, 154)"
    />
    <rect
      x="233.627"
      y="757.264"
      fill="#606060"
      width="725.474"
      height="8.918"
    />
    <rect
      x="233.627"
      y="858.85"
      fill="#606060"
      width="725.474"
      height="8.918"
    />
    <rect
      x="233.627"
      y="958.776"
      fill="#606060"
      width="725.474"
      height="8.919"
    />
    <rect
      x="233.627"
      y="1062.946"
      fill="#606060"
      width="725.474"
      height="8.919"
    />
    <rect
      x="1062.109"
      y="1036.822"
      fill="#4F87BA"
      width="44.501"
      height="30.584"
      style="fill: rgb(71, 82, 91)"
    />
  </g>
</svg>
