<?xml version="1.0" encoding="utf-8"?>
<svg xmlns="http://www.w3.org/2000/svg" xmlns:xlink="http://www.w3.org/1999/xlink" version= "1.1" width="2998px" height="2998px" viewBox="-1138 -766 2998 2998">
<g id="layer1">
</g>
<g id="layer2">
<g style="fill:rgb(155,0,255); fill-opacity:1.0; stroke-linejoin: miter">
<path d="M397.7798,142.94025L397.7798,142.94025C397.8411,142.94418,397.58163,143.14815,396.8896,143.52524L396.8892,143.52545C396.8887,143.52573,396.83908,143.5528,396.73166,143.6029C396.68393,143.62517,396.63626,143.6474,396.58865,143.66959C397.25607,143.1767,397.69702,142.94444,397.77582,142.94025 Z M359.9811,145.0127Q360.51654,145.09538,361.04855,145.17836L361.04495,145.17836C368.28738,147.52782,374.07507,149.6796,378.56653,151.58089L378.56274,151.58089C376.6961,152.36824,374.6362,153.2453,372.94934,154.03221C372.80637,154.0989,372.64508,154.17477,372.49976,154.24379L372.4986,154.24434C371.53043,154.70418,369.66675,155.60953,367.65872,156.85983C358.58774,162.50784,341.99548,176.35017,343.1688,200.64362C343.20425,201.37775,343.25204,202.10861,343.31165,202.83597L343.31165,202.83597L342.95264,202.83578L342.9384,202.83578L342.3683,202.83574L342.36554,202.83574C333.8586,202.83574,324.75073,202.8728,315.54984,203.28632L315.54987,203.28632C299.27423,204.01778,282.7889,205.264,266.08997,207.00871L266.08728,207.00871Q245.93501,208.56854,225.41553,210.71161L225.41548,210.71161C238.19185,195.85829,248.89532,185.95592,257.47662,180.25847C263.92334,175.97824,270.56976,171.97995,277.60812,167.89957L277.60754,167.89957C279.09894,167.06325,288.13086,162.65244,306.4415,156.47112C318.31232,152.46376,335.7971,148.7117,359.9775,145.0127 Z M255.66026,358.61972C255.30219,360.1877,255.0557,361.7757,254.921,363.37146L254.91846,363.37146Q249.07515,363.7388,243.0483,364.1432C243.05675,364.1392,243.06522,364.1352,243.07367,364.1312Q248.7881,361.42505,255.6577,358.61972 Z M97.06034,374.45575Q96.38825,375.9634,95.7173,377.49307L95.71634,377.49307Q90.93906,378.00253,86.22485,378.51596L86.224846,378.51596Q91.58768,376.48367,97.059364,374.45575 Z M-126.5445,633.4754Q-74.22706,648.17395,-13.769016,660.2144C-13.714284,660.22534,-13.658489,660.23627,-13.6037035,660.2469Q58.655518,674.26886,128.86469,679.4611L128.8634,679.4611L63.55843,841.062C59.973076,838.68445,55.91799,836.9667,51.567757,836.0655C49.25285,835.58594,46.922787,835.35175,44.61109,835.35175C34.854946,835.35175,25.425926,839.5226,18.843952,847.0206L-18.955107,890.0805L-47.237804,858.9114C-53.830597,851.64575,-63.09897,847.66327,-72.63239,847.66327C-75.67076,847.66327,-78.73605,848.0678,-81.75024,848.8995C-93.229034,852.06665,-102.16751,860.9324,-105.5067,872.21313L-105.5067,872.21313Q-110.80635,852.1682,-115.578125,830.9522L-115.57928,830.9522Q-131.18347,742.6869,-126.54577,633.4754 Z M846.80975,633.6697C850.4026,707.5605,847.35034,773.249,835.6118,830.8326L835.6118,830.83264C832.6417,845.40234,829.3484,859.5065,825.7737,873.16534C822.6655,861.4328,813.5501,852.1553,801.75024,848.8995C798.7361,848.0678,795.6708,847.66327,792.6324,847.66327C783.099,847.66327,773.83057,851.64575,767.2378,858.9114L738.9551,890.0805L701.156,847.0206C694.57404,839.5226,685.1451,835.35175,675.3889,835.35175C673.0772,835.35175,670.74713,835.58594,668.43225,836.0655C664.08203,836.9667,660.0269,838.68445,656.4415,841.062L591.1511,679.497L591.1452,679.497C638.0045,676.0733,685.53503,669.70776,733.69336,660.2294L733.6934,660.2294C773.94293,652.3075,811.67993,643.49854,846.8013,633.6697 Z M193.30316,841.72894L188.96313,866.3088C187.20058,876.2911,189.94528,886.54175,196.46014,894.3077C199.95457,898.47314,204.34157,901.69476,209.22252,903.7867L209.22043,903.7867Q128.30371,1115.5271,92.74247,1208.5828L92.74247,1208.5828Q76.06941,1194.0172,61.22306,1179.347L61.222446,1179.347L193.30316,841.72894 Z M526.6968,841.7288L658.73254,1179.2322L658.72595,1179.2322C648.92145,1189.1866,638.48944,1199.0912,627.3828,1208.9109L603.64246,1146.7878Q603.64246,1146.7878,510.7817,903.7924L510.77658,903.7924C525.17,897.64185,533.8487,882.2342,531.0368,866.3088L526.6968,841.7288 Z M360.0887,589.96387Q364.76675,590.03485,369.2039,590.92883C369.94446,591.07806,370.68985,591.20276,371.4371,591.3025L371.43338,591.3025Q373.0095,591.54944,377.05884,592.687L377.05508,592.687C378.35938,593.1081,379.75854,593.5902,381.2528,594.13934L381.249,594.13934L442.3114,805.5533L442.30698,805.5533C434.58582,807.17444,427.5801,811.42993,422.56506,817.70636C416.0585,825.8494,413.6093,836.51,415.9094,846.6764L472.9727,1098.8956L516.09393,1289.4911L516.08875,1289.4911C468.06287,1318.2461,416.0867,1343.0114,360.427,1364.2405Q277.01767,1332.047,204.05971,1288.8207L204.05768,1288.8207L247.02724,1098.8956L304.09314,846.665C306.39322,836.4986,303.94403,825.838,297.43747,817.69495C292.42224,811.4183,285.4162,807.1627,277.6947,805.5417L277.69193,805.5417L338.73047,594.21045L338.72708,594.21045Q341.69394,593.13666,344.2883,592.3287L344.28485,592.3287C347.33414,591.5858,349.12396,591.2272,349.6594,591.138C354.158,590.3884,357.35388,590.0154,360.0851,589.96387 Z M365.8999,14.846729C365.8092,14.846729,365.7186,14.847081,365.62808,14.847784L365.62442,14.847784C363.65985,14.84886,361.56787,14.864792,359.37756,14.912321Q356.6958,14.846733,354.10004,14.846733Q326.71567,14.846733,307.6783,22.324389L307.67523,22.324389C272.13644,31.084053,235.8092,46.783085,198.64088,67.98487L198.64088,67.98486C190.63315,72.55269,182.7539,77.46482,175.00806,82.72641L175.0063,82.72641Q0.31034625,101.55541,-209.7365,157.12549C-221.49434,160.23615,-230.72447,169.34267,-233.99338,181.0575Q-261.85883,280.91928,-276.48492,377.74118L-276.48767,377.74118Q-314.23105,407.32196,-326.45126,434.82095L-326.45453,434.82095Q-363.03348,509.56934,-291.79077,564.00946L-291.79367,564.00946Q-294.51486,674.88654,-283.3628,769.5055L-283.36526,769.5055Q-275.30887,845.5922,-258.40576,918.96204C-258.33142,919.28467,-258.25235,919.60645,-258.1687,919.92676Q-235.60359,1006.3472,-226.31433,1027.4497L-226.31659,1027.4497Q-201.34808,1096.332,-164.88208,1157.718C-164.65433,1158.1014,-164.41908,1158.4803,-164.17656,1158.8546Q-118.13207,1229.8988,-101.13342,1247.1134L-101.13444,1247.1134Q11.090839,1388.1129,345.49622,1533.637L345.49274,1533.637C350.05298,1535.7637,355.0061,1536.8494,359.9891,1536.8494L360.01074,1536.8494C364.99203,1536.8494,369.94345,1535.7644,374.50238,1533.6392L374.49866,1533.6392C594.7571,1437.7859,744.71106,1341.2708,822.2833,1245.6565L822.2832,1245.6565C822.75854,1245.0706,823.2642,1244.4517,823.9257,1243.6418L823.9263,1243.6411C824.7373,1242.6481,825.66156,1241.5167,826.72107,1240.2107L826.7211,1240.2107C837.3198,1227.1472,857.94574,1200.9194,884.4959,1158.3523L884.49585,1158.3523C910.6017,1116.4977,929.4987,1071.1764,946.55396,1026.7727C951.3066,1014.3991,963.5163,979.1898,978.27826,919.49554C990.55585,869.8476,997.7081,819.31635,1003.3796,769.35974C1010.5476,706.2205,1013.8787,637.6825,1012.1324,563.7915L1012.12225,563.7915C1053.8596,530.69867,1070.6309,485.74625,1046.3027,434.52124L1046.3027,434.52115C1036.9694,414.86908,1019.429,396.20688,997.0194,378.41516L997.0094,378.41516C987.2956,313.37396,972.56146,247.60028,953.9934,181.05757C950.7245,169.34271,941.4944,160.2362,929.7365,157.12555C790.18256,120.2051,661.9792,95.349754,545.2279,82.75166L545.2224,82.75166Q533.5746,74.8578,521.5141,68.07117L521.50946,68.07117Q464.779,35.329304,412.71616,22.469225L412.71204,22.469225C398.03683,16.421103,381.48007,14.846729,365.9,14.846729 Z"/>
</g>
</g>
<g id="layer3">
<g style="fill:rgb(155,0,255); fill-opacity:1.0; stroke-linejoin: miter">
<path d="M360.47156,1452.4906L762.9074,1178.9736L915.1798,883.4984L912.64514,502.97412L888.932,227.6589L649.07184,140.7165L451.02667,130.00432L157.97475,132.10063L-66.35301,192.11673L-190.31018,259.63376L-218.39207,769.4404L-146.84937,1002.2531L8.941071,1230.953L360.47156,1452.4906"/>
</g>
</g>
<g id="layer4" opacity="0.0">
<g style="fill:rgb(255,234,79); fill-opacity:1.0; stroke-linejoin: miter">
<path d="M844.17194,302.47064L831.1982,297.71692Q744.9442,265.13144,706.2407,260.98322Q697.7469,260.1551,690.61865,260.52362Q686.38727,260.12314,671.6863,263.778Q657.57495,267.94955,639.8226,282.16L596.7792,215.8193L540.7158,144.60413Q573.1081,142.49045,610.8664,151.44797Q612.666,151.2914,697.5464,173.50523Q715.6727,178.01324,742.59753,183.1137L842.24097,210.24213L844.17194,302.47064"/>
</g>
<g style="fill:rgb(255,234,79); fill-opacity:1.0; stroke-linejoin: miter">
<path d="M-124.171936,302.4707L-111.19818,297.71698Q-24.944214,265.1315,13.759277,260.98325Q22.253113,260.15512,29.381348,260.52365Q33.612732,260.12317,48.31372,263.77805Q62.42505,267.9496,80.17743,282.16003L123.220825,215.81934L179.28418,144.60414Q146.8919,142.49048,109.133606,151.448Q107.333984,151.29143,22.453613,173.50528Q4.3272705,178.01329,-22.597534,183.11374L-122.24097,210.24219L-124.171936,302.4707"/>
</g>
<g style="fill:rgb(223,255,241); fill-opacity:1.0; stroke-linejoin: miter">
<path d="M744.7236,1098.2776L744.7236,1098.2787Q744.7236,1098.2815,744.7236,1098.2776"/>
</g>
<g style="fill:rgb(223,255,241); fill-opacity:1.0; stroke-linejoin: miter">
<path d="M-24.723694,1098.2776L-24.723694,1098.2787Q-24.723694,1098.2815,-24.723694,1098.2776"/>
</g>
<g style="fill:rgb(255,234,79); fill-opacity:1.0; stroke-linejoin: miter">
<path d="M484.57083,823.36926L479.8813,811.0287Q458.82922,755.37524,444.9119,729.7124Q428.584,697.9629,407.41876,677.9457Q385.85538,658.3289,363.65402,649.96844Q349.03354,644.3291,336.29434,642.9034L324.4035,642.24066Q299.10764,643.5701,298.00735,642.41077Q291.70016,641.4178,289.17493,634.787Q282.96085,623.2214,298.1642,547.8262L377.3658,533.8599L444.26733,556.5995L494.43576,580.78375L502.19174,736.4193L441.02777,605.1115L484.57083,823.36926"/>
</g>
<g style="fill:rgb(255,234,79); fill-opacity:1.0; stroke-linejoin: miter">
<path d="M235.4292,823.36926L240.11874,811.0287Q261.1708,755.37524,275.08813,729.7124Q291.41602,697.9629,312.58127,677.9457Q334.14465,658.3289,356.346,649.96844Q370.9665,644.3291,383.7057,642.9034L395.59653,642.24066Q420.8924,643.5701,421.99268,642.41077Q428.29987,641.4178,430.8251,634.787Q437.03918,623.2214,421.83582,547.8262L342.63422,533.8599L275.7327,556.5995L225.56427,580.78375L217.80829,736.4193L278.97226,605.1115L235.4292,823.36926"/>
</g>
<g style="fill:rgb(142,198,233); fill-opacity:1.0; stroke-linejoin: miter">
<path d="M677.4791,183.20699L677.47925,183.20721L677.47943,183.20746L677.4791,183.20699"/>
</g>
<g style="fill:rgb(142,198,233); fill-opacity:1.0; stroke-linejoin: miter">
<path d="M42.520935,183.20695L42.520813,183.20718L42.52063,183.20743L42.520935,183.20695"/>
</g>
<g style="fill:rgb(255,234,79); fill-opacity:1.0; stroke-linejoin: miter">
<path d="M454.88907,849.67523L572.3814,1292.1276Q413.22195,1423.127,417.1433,1425.873Q448.83572,1406.3813,473.74597,1360.3848Q482.53244,1344.2885,489.74377,1324.2023L496.23157,1303.1127L501.27225,1280.0161L504.8333,1252.5668L506.4571,1222.9229L506.31964,1191.2839L504.59714,1157.8495Q502.08215,1123.5175,497.10144,1086.3921Q495.62378,1068.9766,478.37286,970.7269Q475.04596,951.2167,454.88907,849.67523"/>
</g>
<g style="fill:rgb(255,234,79); fill-opacity:1.0; stroke-linejoin: miter">
<path d="M265.1109,849.67523L147.61859,1292.1277Q306.77805,1423.1271,302.8567,1425.8732Q271.16428,1406.3815,246.25403,1360.3849Q237.46756,1344.2886,230.25623,1324.2024L223.76843,1303.1128L218.72775,1280.0162L215.16669,1252.5669L213.54291,1222.923L213.68036,1191.284L215.40286,1157.8496Q217.91785,1123.5176,222.89856,1086.3922Q224.37622,1068.9767,241.62714,970.7269Q244.95401,951.2167,265.1109,849.67523"/>
</g>
<g style="fill:rgb(188,188,225); fill-opacity:1.0; stroke-linejoin: miter">
<path d="M783.08203,18.695526L783.0821,18.696518L783.08215,18.69751L783.08203,18.695526"/>
</g>
</g>
<g id="layer5">
<g style="fill:rgb(0,255,188); fill-opacity:1.0; stroke-linejoin: miter">
<path d="M538.97516,615.5382L614.9876,623.22577L766.70514,595.2538L819.8678,552.5044Q835.0658,522.689,816.2157,505.52072Q805.46643,494.28003,767.82654,480.033Q746.6395,471.03857,650.9999,444.19626Q490.04187,423.90356,405.71365,415.31238Q354.6537,410.0485,339.41632,411.84958L289.41968,432.84937L264.76108,456.8186L314.60907,501.07236L468.5698,533.1637L538.97516,615.5382"/>
</g>
<g style="fill:rgb(0,255,188); fill-opacity:1.0; stroke-linejoin: miter">
<path d="M181.02484,615.5382L105.01239,623.22577L-46.70514,595.2538L-99.8678,552.5044Q-115.065796,522.689,-96.2157,505.52072Q-85.46643,494.28003,-47.826538,480.033Q-26.639526,471.03857,69.00012,444.19626Q229.95813,423.90356,314.28635,415.31238Q365.3463,410.0485,380.58368,411.84958L430.58032,432.84937L455.23892,456.8186L405.39093,501.07236L251.4302,533.1637L181.02484,615.5382"/>
</g>
</g>
<g id="layer6">
<g style="fill:rgb(254,254,255); fill-opacity:1.0; stroke-linejoin: miter">
<path d="M339.01575,402.19513L517.02795,411.86954L673.93335,439.81516L762.60645,460.78024L844.8992,517.33887L830.4366,566.1051L920.4582,548.0941L958.3271,531.11273L980.65186,492.36176L939.01306,441.9421L889.40344,399.11316L763.5022,332.83502L683.6937,315.97498Q603.8724,224.40965,551.8032,159.26324L453.2542,84.684814L381.71484,72.92386L308.96326,86.09616L339.01575,402.19513"/>
</g>
<g style="fill:rgb(254,254,255); fill-opacity:1.0; stroke-linejoin: miter">
<path d="M380.9842,402.19513L202.97205,411.86954L46.06665,439.81512L-42.606445,460.7802L-124.89917,517.33887L-110.436584,566.1051L-200.45819,548.0941L-238.32709,531.11273L-260.65186,492.3617L-219.013,441.94205L-169.40338,399.1131L-43.502197,332.835L36.306274,315.97495Q116.127625,224.40964,168.19684,159.26323L266.74582,84.68481L338.2852,72.92386L411.03674,86.09616L380.9842,402.19513"/>
</g>
<g style="fill:rgb(254,254,255); fill-opacity:1.0; stroke-linejoin: miter">
<path d="M298.2862,536.91986L296.613,469.6918Q330.2702,471.95145,349.99307,472.8006Q356.00995,473.2148,403.48267,474.03925Q413.12158,474.2806,424.2669,474.96118Q449.87335,476.78424,464.6222,480.27707Q493.19595,487.24115,518.6304,500.61115L534.0152,508.37802L564.8324,530.0952L554.6187,545.33704L536.60706,591.7949L486.96814,597.9195L474.1963,562.80884L432.3531,530.76556L298.2862,536.91986"/>
</g>
<g style="fill:rgb(254,254,255); fill-opacity:1.0; stroke-linejoin: miter">
<path d="M421.7139,536.91986L423.3871,469.69177Q389.7299,471.95145,370.00702,472.8006Q363.99014,473.2148,316.51743,474.03925Q306.8785,474.2806,295.7332,474.96118Q270.12674,476.78424,255.3779,480.27707Q226.80414,487.24115,201.36969,500.61118L185.98486,508.37805L155.16766,530.0952L165.38135,545.33704L183.393,591.7949L233.03195,597.9195L245.8038,562.80884L287.647,530.76556L421.7139,536.91986"/>
</g>
</g>
<g id="layer7">
<g style="fill:rgb(188,188,225); fill-opacity:1.0; stroke-linejoin: miter">
<path d="M379.21536,357.0349L387.88843,358.38214Q421.32373,363.8674,464.8139,368.58154L501.265,371.82312Q587.20953,377.26968,628.0045,381.3088Q664.36755,384.77768,704.05396,390.90417Q818.4474,410.48947,871.787,432.35217Q937.5711,457.99384,933.4476,488.47955Q933.19635,505.26935,910.1123,522.72986Q897.7242,532.1728,863.2091,536.28754L820.76184,500.59796L725.4685,456.16205L612.3865,431.93103L486.04187,431.64783L393.02576,412.20782L303.20068,401.46805L332.06635,345.984L379.21536,357.0349"/>
</g>
<g style="fill:rgb(188,188,225); fill-opacity:1.0; stroke-linejoin: miter">
<path d="M340.78482,357.0349L332.11176,358.38214Q298.67645,363.8674,255.18628,368.58154L218.73517,371.82312Q132.79065,377.2697,91.99567,381.30884Q55.63263,384.7777,15.946228,390.9042Q-98.447205,410.48953,-151.7868,432.35223Q-217.57092,457.99393,-213.44733,488.47964Q-213.1961,505.26944,-190.11206,522.7299Q-177.72394,532.17285,-143.20886,536.2876L-100.7616,500.59802L-5.4683228,456.1621L107.61371,431.93106L233.95834,431.64783L326.97446,412.20782L416.79953,401.46805L387.93384,345.984L340.78482,357.0349"/>
</g>
<g style="fill:rgb(188,188,225); fill-opacity:1.0; stroke-linejoin: miter">
<path d="M462.2347,378.82547L459.4394,374.2595Q441.68076,344.25262,424.90045,327.05865Q410.30423,311.52008,372.29797,287.477L389.75995,343.9742L408.1012,376.23004L462.2347,378.82547"/>
</g>
<g style="fill:rgb(188,188,225); fill-opacity:1.0; stroke-linejoin: miter">
<path d="M257.76532,378.82547L260.56064,374.2595Q278.31927,344.25262,295.09958,327.05865Q309.69577,311.52008,347.70203,287.477L330.24008,343.9742L311.89883,376.23004L257.76532,378.82547"/>
</g>
<g style="fill:rgb(188,188,225); fill-opacity:1.0; stroke-linejoin: miter">
<path d="M630.0572,388.51605L627.5635,384.7294Q612.48785,360.37402,589.6725,340.69528Q559.33307,315.2171,535.461,306.07538Q531.59576,304.92963,529.3529,305.46118Q528.4966,305.6055,527.58014,306.4896Q525.5496,308.64197,527.40344,315.40167Q530.6357,326.90137,547.28625,356.53287L569.86206,387.93237L630.0572,388.51605"/>
</g>
<g style="fill:rgb(188,188,225); fill-opacity:1.0; stroke-linejoin: miter">
<path d="M89.94287,388.51602L92.436584,384.72937Q107.51221,360.374,130.32758,340.69525Q160.66699,315.21707,184.53906,306.07535Q188.4043,304.9296,190.64716,305.46115Q191.50348,305.60547,192.41992,306.48956Q194.45044,308.64194,192.59662,315.40164Q189.36438,326.90134,172.7138,356.53284L150.138,387.93234L89.94287,388.51602"/>
</g>
<g style="fill:rgb(188,188,225); fill-opacity:1.0; stroke-linejoin: miter">
<path d="M820.7404,423.45795L817.89777,419.9692Q799.98883,397.1844,781.3836,382.58978Q765.2877,369.53287,720.90106,345.73633L752.88574,411.98627L820.7404,423.45795"/>
</g>
<g style="fill:rgb(188,188,225); fill-opacity:1.0; stroke-linejoin: miter">
<path d="M-100.74048,423.45792L-97.89783,419.96918Q-79.98889,397.18436,-61.383667,382.58975Q-45.28778,369.53284,-0.90112305,345.7363L-32.885803,411.98624L-100.74048,423.45792"/>
</g>
<g style="fill:rgb(188,188,225); fill-opacity:1.0; stroke-linejoin: miter">
<path d="M330.64856,266.34766L328.87842,260.70544Q323.04828,243.60713,321.89594,228.05305Q321.34427,217.75513,325.4704,209.00136Q325.66873,206.53763,335.1452,197.02179Q341.43518,191.508,358.96243,179.61401Q363.76367,176.14949,367.7718,172.42879Q376.06296,165.07751,377.7295,155.57014Q380.04,133.70848,349.27936,91.02083Q414.79184,113.81943,474.222,138.12614L541.37366,161.15701L581.36816,241.71983L588.3792,262.06067L330.64856,266.34766"/>
</g>
<g style="fill:rgb(188,188,225); fill-opacity:1.0; stroke-linejoin: miter">
<path d="M421.46283,517.5525L425.49945,517.2578Q437.9959,516.47546,447.01254,514.77747Q456.08984,512.62384,456.22488,510.00388Q456.56494,508.84216,456.05173,507.4989Q456.2172,506.93298,452.97906,503.03354Q450.7671,500.0136,435.0187,488.55612Q470.21698,498.65958,489.01282,507.12955Q505.59967,514.61993,515.9413,523.6471Q518.1147,525.08887,525.1556,533.1083Q527.7386,536.35156,529.6034,539.6365Q535.23596,550.01825,533.6463,557.9641Q533.09406,561.15576,531.71326,564.20056L530.16675,567.216Q528.4339,570.1984,526.12103,573.078Q518.85095,581.658,509.34384,589.8415L491.2978,591.0045L421.46283,517.5525"/>
</g>
<g style="fill:rgb(188,188,225); fill-opacity:1.0; stroke-linejoin: miter">
<path d="M298.53726,517.5525L294.50064,517.2578Q282.00418,516.47546,272.98755,514.77747Q263.91025,512.62384,263.7752,510.00388Q263.43515,508.84216,263.94836,507.4989Q263.7829,506.93298,267.02103,503.03354Q269.233,500.0136,284.98138,488.55612Q249.78311,498.65958,230.98727,507.12955Q214.40042,514.61993,204.05878,523.6471Q201.88538,525.08887,194.84448,533.1083Q192.26147,536.35156,190.39667,539.6365Q184.7641,550.01825,186.35376,557.9641Q186.906,561.15576,188.2868,564.20056L189.83331,567.216Q191.56616,570.1984,193.87903,573.078Q201.14911,581.658,210.65625,589.8415L228.7023,591.0045L298.53726,517.5525"/>
</g>
<g style="fill:rgb(188,188,225); fill-opacity:1.0; stroke-linejoin: miter">
<path d="M359.95572,488.00064L364.47556,488.21277Q378.2666,488.74243,389.9737,490.23227Q397.68192,491.26993,403.30618,493.2678Q406.0736,494.2748,408.20935,495.6228Q410.00684,496.57855,412.33008,499.2965Q415.28336,503.43607,413.28384,507.12463Q411.1133,510.29874,407.96533,511.3964L405.46945,512.261Q402.75342,513.0279,399.37854,513.4856Q397.9366,513.8468,388.32556,514.3658Q384.37802,514.51184,380.32578,514.55164L364.80658,514.69165Q364.11557,514.6642,352.74265,515.12396Q350.20642,515.214,348.2071,515.177Q344.18555,515.1467,342.58615,514.0853Q340.83463,512.95526,342.42136,509.64035Q343.67792,505.6935,359.95572,488.00064"/>
</g>
<g style="fill:rgb(188,188,225); fill-opacity:1.0; stroke-linejoin: miter">
<path d="M360.04428,488.00064L355.52444,488.21277Q341.7334,488.74243,330.02634,490.23227Q322.3181,491.26993,316.69385,493.2678Q313.92642,494.2748,311.79068,495.6228Q309.9932,496.57855,307.66995,499.2965Q304.71667,503.43607,306.7162,507.12463Q308.88672,510.29874,312.0347,511.3964L314.53058,512.261Q317.2466,513.0279,320.6215,513.4856Q322.06342,513.8468,331.67447,514.3658Q335.622,514.51184,339.67422,514.55164L355.19342,514.69165Q355.88443,514.6642,367.25735,515.12396Q369.79358,515.214,371.7929,515.17706Q375.81445,515.1468,377.41385,514.0854Q379.16537,512.9553,377.57864,509.64035Q376.32208,505.6935,360.04428,488.00064"/>
</g>
<g style="fill:rgb(145,145,195); fill-opacity:1.0; stroke-linejoin: miter">
<path d="M502.70642,-97.89159L502.70624,-97.89013L502.70605,-97.88867L502.70642,-97.89159"/>
</g>
<g style="fill:rgb(188,188,225); fill-opacity:1.0; stroke-linejoin: miter">
<path d="M346.31573,128.17407L346.3158,128.17445L346.31586,128.17484L346.31573,128.17407"/>
</g>
</g>
<g id="layer8">
<g style="fill:rgb(0,244,136); fill-opacity:1.0; stroke-linejoin: miter">
<path d="M613.69794,427.84305L613.698,427.84415L613.69806,427.84525L613.69794,427.84305"/>
</g>
<g style="fill:rgb(29,24,56); fill-opacity:0.2627451; stroke-linejoin: miter">
<path d="M29.684143,766.7976L-11.427368,844.3707L-56.29724,778.1821L-97.67175,855.7591L-107.78943,815.57495L-167.97778,888.46924L-127.18115,1039.3068L30.209229,1097.0697L131.02844,847.2145L71.10919,770.58057L29.684143,766.7976 Z M690.31586,766.7976L648.8908,770.58057L588.97156,847.2145L689.7908,1097.0697L847.18115,1039.3068L887.9778,888.46924L827.7894,815.57495L817.67175,855.7591L776.29724,778.1821L731.42737,844.3707L690.31586,766.7976 Z"/>
</g>
</g>
<g id="layer9">
<g style="fill:rgb(254,254,255); fill-opacity:1.0; stroke-linejoin: miter">
</g>
<g style="fill:rgb(254,254,255); fill-opacity:1.0; stroke-linejoin: miter">
</g>
<g style="fill:rgb(254,254,255); fill-opacity:1.0; stroke-linejoin: miter">
</g>
<g style="fill:rgb(254,254,255); fill-opacity:1.0; stroke-linejoin: miter">
</g>
<g style="fill:rgb(51,36,69); fill-opacity:1.0; stroke-linejoin: miter">
</g>
<g style="fill:rgb(51,36,69); fill-opacity:1.0; stroke-linejoin: miter">
</g>
<g style="fill:rgb(51,36,69); fill-opacity:1.0; stroke-linejoin: miter">
</g>
<g style="fill:rgb(51,36,69); fill-opacity:1.0; stroke-linejoin: miter">
</g>
<g style="fill:rgb(51,36,69); fill-opacity:1.0; stroke-linejoin: miter">
</g>
<g style="fill:rgb(51,36,69); fill-opacity:1.0; stroke-linejoin: miter">
</g>
<g style="fill:rgb(255,255,255); fill-opacity:1.0; stroke-linejoin: miter">
</g>
<g style="fill:rgb(255,255,255); fill-opacity:1.0; stroke-linejoin: miter">
</g>
<g style="fill:rgb(255,255,255); fill-opacity:1.0; stroke-linejoin: miter">
</g>
<g style="fill:rgb(255,255,255); fill-opacity:1.0; stroke-linejoin: miter">
</g>
<g style="fill:rgb(255,255,255); fill-opacity:1.0; stroke-linejoin: miter">
</g>
<g style="fill:rgb(255,255,255); fill-opacity:1.0; stroke-linejoin: miter">
</g>
<g style="fill:rgb(255,186,0); fill-opacity:1.0; stroke-linejoin: miter">
<path d="M582.1706,1494.9115L582.1706,1494.9127Q582.1706,1494.915,582.1706,1494.9115"/>
</g>
<g style="fill:rgb(255,186,0); fill-opacity:1.0; stroke-linejoin: miter">
<path d="M137.82947,1494.9116L137.82947,1494.9128Q137.82947,1494.9152,137.82947,1494.9116"/>
</g>
<g style="fill:rgb(98,38,170); fill-opacity:1.0; stroke-linejoin: miter">
<path d="M449.46832,399.23602L449.46832,399.237Q449.46832,399.23944,449.46832,399.23602"/>
</g>
<g style="fill:rgb(98,38,170); fill-opacity:1.0; stroke-linejoin: miter">
<path d="M270.53156,399.23602L270.53156,399.237Q270.53156,399.23944,270.53156,399.23602"/>
</g>
<g style="fill:rgb(29,24,56); fill-opacity:1.0; stroke-linejoin: miter">
<path d="M485.62036,157.95947C487.14322,157.95947,488.88242,158.14284,490.83792,158.5096L490.83304,158.5096Q517.2932,179.78351,551.823,228.65291L551.823,228.65291C536.0976,227.60028,523.83636,226.22548,515.0675,224.38933C501.41895,221.53137,493.84866,219.1887,492.2324,217.93503C487.85745,216.09317,484.05237,213.92932,480.86102,211.38795C477.66962,208.84654,475.11023,205.97678,473.13864,202.83388L470.58054,198.02077C469.1588,194.7062,468.23447,191.33987,467.80746,187.92177C467.38046,184.50366,467.67575,181.21931,467.80804,177.99167C467.88943,176.00578,468.76483,171.72577,472.08914,165.51105C474.61865,160.7822,478.88174,158.43445,484.1309,158.02408C484.60248,157.98721,485.09845,157.95947,485.62036,157.95947 Z M359.99863,110.338394Q364.6071,111.01932,368.99692,111.72025L368.99323,111.72025C381.34454,115.628334,391.16803,119.40167,398.49393,122.97876C409.7716,128.48543,417.466,134.9584,421.5309,142.49261C422.70935,143.72418,424.10376,147.38266,424.76505,153.59372C425.29034,158.5275,423.57736,163.05646,420.58093,167.10992C420.3143,168.37292,417.6308,171.68912,411.22726,174.67627C396.86737,181.37492,388.15128,184.49173,385.78226,185.96677C380.8202,189.05634,377.13705,193.19269,377.41702,198.98955C377.9688,210.41475,384.97305,223.23724,397.96393,237.41943L397.96393,237.41943Q384.7118,237.12477,371.26965,237.12477Q365.63388,237.12477,359.9647,237.17657L359.9647,237.17657C356.209,237.14204,352.46432,237.12477,348.7306,237.12477L348.7303,237.12477L348.7303,237.12578L348.7303,237.12679C346.60535,237.12637,344.48376,237.12387,342.36554,237.12387C333.88123,237.12387,325.45227,237.16402,317.0893,237.53987C301.37473,238.24612,285.41083,239.45622,269.19708,241.15898L269.1944,241.15898Q226.93245,244.4165,182.97447,250.30441Q166.15613,252.53065,150.44153,254.80211L150.44151,254.80211C185.35089,201.652,214.80571,167.43192,238.51099,151.69308C245.8012,146.85284,253.13449,142.45358,260.46506,138.20454C264.2469,136.01247,275.6121,130.68935,295.47455,123.98416C311.18002,118.682304,332.75705,114.346794,359.99503,110.338394 Z M147.94792,148.92638C139.76308,156.85011,131.76672,165.31625,123.96711,174.33958C104.6391,196.70006,84.44472,228.37257,63.391823,269.36395L63.391186,269.36395Q13.911691,279.0803,-17.656511,289.53006Q-75.80977,308.4077,-124.81193,330.084L-124.81193,330.084L-113.137634,264.96176Q-19.66504,235.84564,50.509583,225.43521Q85.10425,182.54465,147.94644,148.92638 Z M572.2096,149.01053L572.2096,149.01053C614.029,171.40204,646.45593,196.87703,669.4904,225.43524C716.27344,232.37552,770.8225,245.55103,833.13763,264.9618L844.81494,330.10114L844.81494,330.10114C812.1337,315.68372,776.39777,302.2,737.6565,289.53006C716.6025,282.64453,689.61,275.94278,656.6636,269.45883L656.65704,269.45883Q625.0522,207.90195,596.0329,174.3396Q584.3961,160.87402,572.20386,149.01053 Z M359.81104,420.2887L359.81104,420.2897L359.81104,420.2907L359.8192,420.2907C390.35492,420.2907,415.1076,431.5298,415.1076,445.39355C415.1076,459.25858,390.35046,470.4984,359.81104,470.4984C329.27155,470.4984,304.5144,459.25858,304.5144,445.39355C304.5144,431.52853,329.27155,420.2887,359.81104,420.2887 Z M147.66591,442.93912Q161.69873,442.93912,173.13133,445.7899Q189.81859,449.98853,193.59044,458.0965Q196.41515,466.64392,183.86772,473.62335Q171.30797,480.55933,149.9334,482.85165L142.84923,483.36136Q139.63481,483.50543,136.5284,483.50543Q132.64,483.50543,128.92082,483.2797L122.43083,482.71216Q116.10942,481.9726,110.71605,480.62946Q94.02879,476.4308,90.25694,468.3228Q87.432236,459.7754,99.97966,452.79596Q112.539474,445.85995,133.91393,443.5677Q141.07658,442.93912,147.66591,442.93912 Z M572.3341,442.93912L572.3341,442.94012L572.3341,442.94113C572.3654,442.94113,572.3968,442.9411,572.42816,442.9411C576.7924,442.9411,581.35144,443.0831,586.08606,443.5677C600.3429,445.0269,611.6542,448.15912,620.0203,452.79596C628.3924,457.43607,631.95294,462.7431,629.74304,468.3228C627.5478,473.86548,620.4104,477.83694,609.28394,480.62946C605.69,481.53146,601.7834,482.21906,597.56915,482.71216L591.07916,483.2797C588.5997,483.43018,586.06384,483.50543,583.47156,483.50543C581.40063,483.50543,579.2937,483.4574,577.15076,483.36136L570.0666,482.85165C555.81683,481.32343,544.4983,478.26016,536.13226,473.62335C527.76013,468.98315,524.19965,463.67618,526.40955,458.0965C528.6048,452.5538,535.7414,448.5794,546.86865,445.7899C554.48785,443.87982,562.9786,442.93912,572.3337,442.93912 Z M330.6848,298.59918L330.6881,298.6002Q320.7873,316.2349,289.08752,366.2583Q326.78253,364.19257,359.9983,363.30402L360.0019,363.30402C382.1457,363.8964,405.78253,364.88113,430.91248,366.2583C409.78003,332.91068,395.91345,310.3581,389.31262,298.60056L389.31653,298.60056C434.9046,310.92514,473.47388,346.36044,500.18396,373.53632L589.6429,384.21448C570.19794,339.87848,554.7648,319.51974,536.8477,308.99692L536.8531,308.99692C608.6319,331.4887,630.58685,340.2258,666.2807,386.62567L783.03754,407.17172L731.61084,351.61157L778.8849,369.32474C873.5112,405.0308,931.86993,436.2035,942.51074,467.5451C957.30115,511.10904,933.03357,534.6146,881.5843,534.6146C880.54504,534.6146,879.49316,534.60547,878.4287,534.5873C895.8811,529.32605,908.4492,523.087,915.0129,514.92535C923.34625,504.5631,923.537,494.01486,917.7946,483.5763C909.3338,468.19614,878.18695,454.85968,823.5537,442.8958C785.6288,434.59082,747.64844,427.21313,709.3196,422.11002C648.4418,414.0047,577.1823,406.3143,495.48303,399.82294C443.05774,395.6575,400.31512,394.02072,367.32343,394.02072C365.03217,394.02072,362.78967,394.03394,360.59558,394.05972L360.59558,394.05972Q356.7342,394.02072,352.67657,394.02072Q303.18896,394.02072,224.51692,399.82294Q102.00426,410.00574,10.680402,422.11002Q-46.805744,429.81836,-103.55373,442.8958Q-185.63728,460.2204,-197.79463,483.5763Q-206.93379,498.9334,-195.0129,514.92535Q-184.60738,526.69543,-158.42873,534.5873Q-160.02559,534.6146,-161.58432,534.6146Q-238.75827,534.6146,-222.51076,467.5451Q-200.82454,422.88385,-58.884907,369.32474L-11.610857,351.61157L-11.610857,351.61157L-83.27742,420.06494Q12.153915,362.57663,183.15817,308.99237L183.16,308.99338Q156.28021,324.7731,127.10863,391.2866Q194.44255,347.98267,228.39842,333.14227Q262.3017,317.08688,330.6848,298.59918 Z M-25.036701,521.8093Q-16.009907,521.8166,-7.7065616,522.4653L0.3382991,523.2523Q8.163433,524.18884,14.799114,525.6354Q35.327557,530.15,39.558453,537.68005Q42.58537,545.57007,26.570354,551.3924Q10.5424,557.1747,-16.190754,558.36646L-25.036701,558.53406Q-52.738422,558.33716,-71.133194,553.1558Q-89.52791,547.97455,-90.226944,540.1717Q-89.52791,532.36884,-71.133194,527.18756Q-52.738422,522.0062,-25.036701,521.8093 Z M745.0367,521.8093L745.0367,521.8103L745.0367,521.8113C763.5044,521.94055,778.8699,523.7333,791.1332,527.18756C803.39624,530.6417,810.2269,534.9489,810.2269,540.1717C810.2269,545.39435,803.39624,549.7016,791.1332,553.1558C778.8699,556.6101,763.5044,558.4028,745.0367,558.53406L736.19073,558.36646C718.3686,557.5719,704.1101,555.26044,693.4296,551.3924C682.7481,547.524,678.0423,542.7774,680.4415,537.68005C682.89374,532.4701,691.51385,528.639,705.20087,525.6354C709.6233,524.66486,714.4449,523.87665,719.6617,523.2523L727.70654,522.4653C733.24207,522.0328,739.0188,521.81415,745.0367,521.8093 Z M350.4933,474.39276C379.0378,474.77115,398.86508,475.0407,408.34973,475.5142C425.3164,476.36118,456.3067,481.92438,465.638,484.8139C502.81006,496.32446,526.92755,507.05695,542.4231,523.90204C559.8164,542.8102,550.9785,563.1959,515.97955,584.99493L515.34875,583.434Q533.76294,545.37085,500.2328,531.89984Q471.7994,517.61847,378.46396,513.2852L378.46017,513.2852C374.12033,512.87286,371.13037,512.6986,369.49817,512.6986C369.28445,512.6986,369.0941,512.7131,368.92667,512.7131C368.90625,512.7131,368.88614,512.7129,368.8664,512.7124C366.26447,512.6487,363.79285,512.59625,361.4505,512.59625C361.44913,512.59625,361.44778,512.59625,361.4464,512.59625L361.4464,512.5972C361.43732,512.5972,361.42822,512.5972,361.41913,512.5972C360.96893,512.5972,360.52353,512.5988,360.08295,512.60187L360.08295,512.60187Q359.3277,512.59625,358.5536,512.59625Q355.0382,512.59625,351.1336,512.7124Q350.8615,512.6986,350.50183,512.6986Q348.25037,512.6986,342.56638,513.2379L342.56296,513.2379Q248.35667,517.54,219.76717,531.89984Q186.23705,545.37085,204.65123,583.434L204.02014,584.99567L204.02014,584.99567Q151.53853,552.31006,177.57689,523.90204Q200.88121,498.69073,271.95422,480.29144Q286.20544,476.88507,311.65027,475.5142Q322.7773,475.00793,350.48978,474.39276 Z M110.93229,580.22406Q112.15996,580.22406,113.4221,580.2552Q118.32456,580.43713,122.81449,581.1517L127.15983,581.9792Q131.38121,582.92975,134.94102,584.29193Q145.95262,588.5398,148.02043,595.04065Q149.42339,601.8249,140.54729,606.47595Q131.66545,611.09265,117.109535,611.588L112.299965,611.55865Q97.26054,610.85156,87.4282,606.07697Q77.59586,601.3024,77.45463,594.6378Q78.07273,588.00037,88.22166,583.9421Q97.51955,580.22406,110.93229,580.22406 Z M609.0676,580.22406L609.0676,580.22504L609.0676,580.226L609.0894,580.226C618.02167,580.226,625.5846,581.4654,631.77826,583.9421C638.5442,586.6476,642.38605,590.19653,642.5453,594.6378C642.7045,599.07904,639.1266,602.8939,632.5717,606.07697C626.0168,609.26,617.7262,611.0872,607.69995,611.55865L602.8904,611.588C593.1864,611.25775,585.3687,609.56354,579.45264,606.47595C573.5301,603.385,570.8121,599.5092,571.9795,595.04065C573.129,590.64044,577.71594,587.11896,585.0589,584.29193C587.43024,583.37897,590.0258,582.61285,592.8401,581.9792L597.1854,581.1517C600.1787,580.6753,603.30914,580.3682,606.5778,580.2552C607.4081,580.2265,608.22766,580.22406,609.0358,580.22406 Z M-158.204,588.1323Q-90.779915,609.9159,-7.071919,626.5867Q87.68759,644.9748,178.6671,647.7377L178.6653,647.7377L64.30641,930.7253L64.30641,930.7253L44.61228,869.64075L-18.531393,941.57263L-72.630394,881.9525L-87.33303,955.06396L-108.63381,908.177L-124.829384,928.6286L-124.82939,928.6286Q-138.36847,886.02606,-149.20905,837.68146Q-168.73499,727.924,-158.20558,588.1323 Z M878.2712,588.3872C885.5586,681.5377,884.041,764.92267,869.209,837.68146C862.5781,870.20935,854.3901,900.56415,845.06995,928.93243L845.06995,928.93243L828.6338,908.177L807.333,955.06396L792.6304,881.9525L738.5314,941.57263L675.3877,869.64075L655.69354,930.7253L655.69354,930.7253L541.33575,647.7403L541.3303,647.7403C601.9884,645.91974,663.9307,639.014,727.0719,626.5867C782.88837,615.60095,833.33655,602.9642,878.2624,588.3872 Z M360.05237,555.67303Q368.17575,555.7445,375.97623,557.31616Q379.82306,557.8281,386.9449,559.84973L386.941,559.84973C390.79788,561.07263,395.0118,562.60974,399.5726,564.4923C402.93173,565.87885,406.2931,567.36237,409.66174,568.93066L409.65765,568.93066L497.271,872.27075L497.271,872.27075L454.26562,628.70905L464.6684,589.06104L698.60846,1187.047L698.6015,1187.047C674.073,1213.779,645.57104,1240.1792,612.3656,1265.6669L612.3656,1265.6669Q530.86115,1052.3884,449.3568,839.1101L449.3523,839.1101L506.4156,1091.3293L554.93616,1305.7899L554.9306,1305.7899C495.6435,1343.6063,430.56116,1374.9865,360.35587,1400.888L360.35583,1400.888Q254.90796,1361.5311,165.1818,1305.2755L165.18013,1305.2755L213.58434,1091.3293L270.65024,839.0987L270.64752,839.0987Q189.19847,1052.2322,107.74938,1265.3657L107.749374,1265.3657Q58.41981,1226.9062,21.224861,1187.4735L21.22465,1187.4735L255.33159,589.06104L265.7343,628.70905L222.72896,872.27075L310.31378,569.0295L310.3107,569.0295Q315.39014,566.656,320.4274,564.4923Q328.55917,561.25934,335.16016,559.2638L335.1568,559.2638C339.03677,558.3007,342.12195,557.63306,344.02377,557.31616C349.28894,556.43884,354.6006,555.7279,360.04877,555.67303 Z M365.9,49.134865C365.89996,49.134865,365.89993,49.134865,365.8999,49.134865L365.8999,49.135864C365.88055,49.13586,365.86124,49.13586,365.8419,49.13586C363.7327,49.13586,361.5608,49.154026,359.3285,49.211117L359.3285,49.211117Q356.6551,49.13487,354.10004,49.13487Q332.84308,49.13487,319.77826,54.412415Q319.18756,54.686356,318.62848,54.95489L318.6253,54.95489C286.1637,62.59682,251.9082,77.07415,215.63005,97.76816C206.02602,103.24655,196.60751,109.28477,187.38423,115.90013L187.38235,115.90013Q11.831371,133.9752,-200.96692,190.27321Q-230.26192,295.25806,-244.60216,396.6813L-244.6046,396.6813Q-285.3113,425.95895,-295.3302,449.23096Q-322.94266,504.8187,-256.96857,546.45715L-256.97113,546.45715Q-261.09357,665.5183,-249.31036,765.49194Q-241.47467,839.72314,-224.99286,911.2643Q-202.12897,998.829,-194.54584,1014.4785Q-170.55536,1081.0316,-135.40308,1140.2062Q-88.71472,1212.2438,-75.6568,1224.0531Q30.606976,1359.318,359.95407,1502.5344L359.95047,1502.5344L359.98474,1502.5609C359.9892,1502.559,359.99365,1502.557,359.99814,1502.555L360.0017,1502.555Q360.00842,1502.558,360.0151,1502.5609L360.04938,1502.5344L360.04578,1502.5344C579.6103,1407.0565,723.40753,1313.1067,795.6567,1224.0532C803.0515,1214.9385,825.11584,1188.7645,855.40295,1140.2063C879.6865,1101.2733,897.635,1058.506,914.5457,1014.4785C918.7026,1003.656,930.50903,969.83356,944.9928,911.2643C956.74225,863.75195,963.69696,814.9367,969.3103,765.49194C976.87915,698.82227,980.0807,625.7981,977.32404,546.4602L977.3143,546.4602C1020.8611,518.9484,1033.0334,486.5067,1015.3302,449.23096C1008.1409,434.09344,991.6552,416.60953,965.07965,397.19186L965.07,397.19186C955.69006,329.3839,940.5495,260.4518,920.9669,190.27325C779.1989,152.76704,649.82965,127.9843,532.85913,115.925026L532.85376,115.925026Q518.92773,105.9355,504.36993,97.76817Q450.31647,66.57134,401.75006,55.093796L401.74606,55.093796C401.2589,54.86689,400.75098,54.639595,400.22174,54.412415C391.58975,50.707066,380.0713,49.134865,365.9,49.134865 Z"/>
</g>
<g style="fill:rgb(0,107,244); fill-opacity:1.0; stroke-linejoin: miter">
<path d="M643.6583,1212.6553L643.65826,1212.6571L643.6582,1212.6589L643.6583,1212.6553"/>
</g>
</g>
<g id="layer10">
</g>
</svg>