<svg
  xmlns="http://www.w3.org/2000/svg"
  width="526"
  height="656"
  viewBox="0 0 526 656"
>
  <g fill="none" fill-rule="evenodd">
    <rect width="526" height="80" fill="#FFF" />
    <g fill="#000" fill-rule="nonzero">
      <path d="M526 0H0V72H526V0Z" fill="white" />
      <path
        d="M50.915 40.5116H40.5923V35.2791H55.9813V56.3488C54.7994 56.9533 52.6882 57.5583 49.6484 58.1628C46.6086 58.7209 43.8434 59 41.3523 59C34.8081 59 30.2696 57.3021 27.7364 53.907C25.2453 50.5118 24 44.7211 24 36.5349C24 28.8141 25.4986 23.1395 28.4964 19.5116C31.4941 15.8374 36.2013 14 42.6188 14C44.8141 14 46.904 14.0698 48.8885 14.2093C50.915 14.3025 52.5616 14.4649 53.8281 14.6977V19.9302C52.1395 19.7444 50.303 19.6048 48.3185 19.5116C46.3766 19.4184 44.4767 19.3721 42.6188 19.3721C37.8058 19.3721 34.4073 20.6742 32.4228 23.2791C30.4809 25.8839 29.5097 30.3021 29.5097 36.5349C29.5097 39.6047 29.6576 42.1861 29.953 44.2791C30.2909 46.3258 30.8183 47.9767 31.5362 49.2326C32.3808 50.8138 33.584 51.9535 35.146 52.6512C36.7079 53.3025 38.9878 53.6279 41.9855 53.6279C43.1675 53.6279 44.5608 53.5347 46.1653 53.3488C47.7698 53.1161 49.353 52.8141 50.915 52.4419V40.5116ZM86.5506 51.7442V56.5581C85.4528 57.2095 83.8275 57.7905 81.6743 58.3023C79.5631 58.7673 77.4099 59 75.2147 59C70.317 59 66.8131 57.6046 64.702 54.814C62.5909 52.0233 61.5355 47.4186 61.5355 41C61.5355 34.8141 62.6334 30.3256 64.8287 27.5349C67.0239 24.6979 70.5283 23.2791 75.3413 23.2791C79.8164 23.2791 83.0255 24.3954 84.9674 26.6279C86.9093 28.8141 87.8806 32.4884 87.8806 37.6512C87.8806 38.5816 87.8593 39.4417 87.8172 40.2326C87.7752 41.0234 87.6906 41.9767 87.5639 43.093H66.7919C66.8339 46.9068 67.5305 49.6277 68.8817 51.2558C70.275 52.8839 72.6602 53.6977 76.038 53.6977C77.8532 53.6977 79.7531 53.5118 81.7376 53.1395C83.7221 52.7673 85.3261 52.3023 86.5506 51.7442ZM83.1308 36.8837C83.0888 33.814 82.4763 31.6512 81.2943 30.3954C80.1123 29.0932 78.1278 28.4419 75.3413 28.4419C72.2169 28.4419 70.0004 29.1859 68.6918 30.6744C67.4252 32.1161 66.7919 34.6746 66.7919 38.3488H83.0675C83.0675 38.2556 83.0675 38.0463 83.0675 37.7209C83.1096 37.3487 83.1308 37.0696 83.1308 36.8837ZM99.7895 58.4419H94.5964V23.9767H99.3461L99.5995 26.907H99.8528C101.499 25.837 103.146 25.0467 104.792 24.5349C106.439 23.9767 108.064 23.6977 109.669 23.6977C110.344 23.6977 110.787 23.6977 110.999 23.6977C111.252 23.6977 111.442 23.7211 111.569 23.7674V29.2791C111.273 29.1859 110.893 29.1395 110.429 29.1395C110.007 29.0932 109.331 29.0698 108.402 29.0698C106.882 29.0698 105.384 29.2791 103.906 29.6977C102.471 30.07 101.098 30.651 99.7895 31.4419V58.4419ZM115.486 58.4419H109.786L125.492 14.6977H131.065L146.58 58.4419H140.881L137.271 47.907H119.096L115.486 58.4419ZM128.152 20.1395C127.73 21.7676 127.223 23.4884 126.632 25.3023C126.083 27.1163 125.513 28.9302 124.922 30.7442L120.869 42.6744H135.498L131.445 30.7442C130.6 28.1862 129.925 26.1161 129.418 24.5349C128.954 22.9537 128.532 21.4886 128.152 20.1395ZM156.501 58.4419H151.308V23.9767H156.058L156.311 26.907H156.565C158.211 25.837 159.858 25.0467 161.504 24.5349C163.151 23.9767 164.776 23.6977 166.381 23.6977C167.056 23.6977 167.499 23.6977 167.711 23.6977C167.964 23.6977 168.154 23.7211 168.281 23.7674V29.2791C167.985 29.1859 167.605 29.1395 167.141 29.1395C166.719 29.0932 166.043 29.0698 165.114 29.0698C163.594 29.0698 162.096 29.2791 160.618 29.6977C159.183 30.07 157.81 30.651 156.501 31.4419V58.4419ZM192 53.0698V57.8837C191.325 58.2091 190.396 58.4653 189.214 58.6512C188.074 58.8839 186.976 59 185.92 59C182.121 59 179.397 58.0696 177.751 56.2093C176.146 54.349 175.344 51.1397 175.344 46.5814V28.8605H170.658V23.9767H175.408L176.231 15.6047H180.537V23.9767H191.683V28.8605H180.537V46.3721C180.537 49.2091 181.002 51.1397 181.931 52.1628C182.902 53.1859 184.59 53.6977 186.997 53.6977C187.757 53.6977 188.622 53.6279 189.594 53.4884C190.607 53.3488 191.409 53.2093 192 53.0698Z"
        fill="#16181C"
      />
    </g>
  </g>
</svg>
