<svg
  width="13"
  height="5"
  viewBox="0 0 13 5"
  fill="none"
  xmlns="http://www.w3.org/2000/svg"
>
  <path
    d="M2.446 2.217H1.38C1.36674 2.217 1.35402 2.22227 1.34464 2.23164C1.33527 2.24102 1.33 2.25374 1.33 2.267V2.789C1.33 2.80226 1.33527 2.81498 1.34464 2.82435C1.35402 2.83373 1.36674 2.839 1.38 2.839H1.796V3.488C1.68106 3.51497 1.56292 3.52574 1.445 3.52C1.14 3.52 0.714 3.408 0.714 2.472C0.714 1.536 1.157 1.412 1.574 1.412C1.78272 1.40513 1.9909 1.437 2.188 1.506C2.19535 1.5075 2.20294 1.50733 2.21021 1.5055C2.21749 1.50367 2.22426 1.50022 2.23002 1.49542C2.23578 1.49062 2.24039 1.48458 2.2435 1.47776C2.24661 1.47094 2.24815 1.4635 2.248 1.456L2.368 0.951999C2.36809 0.944363 2.36631 0.936821 2.36282 0.930026C2.35934 0.92323 2.35425 0.917386 2.348 0.913C2.06758 0.77697 1.7554 0.719927 1.445 0.748C0.73 0.748 0 1.05 0 2.508C0 3.966 0.837 4.183 1.542 4.183C1.87208 4.19056 2.19747 4.10383 2.48 3.933C2.48564 3.92851 2.49006 3.92268 2.49285 3.91604C2.49565 3.9094 2.49673 3.90217 2.496 3.895V2.267C2.496 2.25374 2.49073 2.24102 2.48136 2.23164C2.47198 2.22227 2.45926 2.217 2.446 2.217ZM7.991 0.923C7.991 0.909739 7.98573 0.897021 7.97636 0.887644C7.96698 0.878268 7.95426 0.873 7.941 0.873H7.34C7.32674 0.873 7.31402 0.878268 7.30464 0.887644C7.29527 0.897021 7.29 0.909739 7.29 0.923V2.084H6.354V0.923C6.354 0.916434 6.35271 0.909932 6.35019 0.903866C6.34768 0.897799 6.344 0.892287 6.33936 0.887644C6.33471 0.883002 6.3292 0.879319 6.32313 0.876806C6.31707 0.874293 6.31057 0.873 6.304 0.873H5.704C5.69743 0.873 5.69093 0.874293 5.68487 0.876806C5.6788 0.879319 5.67329 0.883002 5.66864 0.887644C5.664 0.892287 5.66032 0.897799 5.65781 0.903866C5.65529 0.909932 5.654 0.916434 5.654 0.923V4.068C5.654 4.08126 5.65927 4.09398 5.66864 4.10336C5.67802 4.11273 5.69074 4.118 5.704 4.118H6.304C6.31726 4.118 6.32998 4.11273 6.33936 4.10336C6.34873 4.09398 6.354 4.08126 6.354 4.068V2.723H7.291L7.289 4.068C7.289 4.08126 7.29427 4.09398 7.30364 4.10336C7.31302 4.11273 7.32574 4.118 7.339 4.118H7.942C7.95526 4.118 7.96798 4.11273 7.97736 4.10336C7.98673 4.09398 7.992 4.08126 7.992 4.068L7.991 0.923ZM3.602 1.335C3.60121 1.25839 3.57776 1.18374 3.5346 1.12044C3.49145 1.05714 3.43052 1.00803 3.3595 0.979306C3.28848 0.950582 3.21054 0.943525 3.13551 0.959026C3.06049 0.974527 2.99173 1.01189 2.93791 1.06641C2.88408 1.12093 2.84761 1.19016 2.83307 1.26538C2.81853 1.3406 2.82659 1.41844 2.85622 1.48908C2.88586 1.55973 2.93574 1.62002 2.99959 1.66236C3.06344 1.7047 3.13839 1.72719 3.215 1.727C3.31826 1.72621 3.41699 1.68449 3.48954 1.61101C3.56209 1.53752 3.60253 1.43826 3.602 1.335ZM3.56 3.403V1.952C3.56 1.94543 3.55871 1.93893 3.55619 1.93287C3.55368 1.9268 3.55 1.92129 3.54536 1.91664C3.54071 1.912 3.5352 1.90832 3.52913 1.90581C3.52307 1.90329 3.51657 1.902 3.51 1.902H2.91C2.89612 1.90347 2.88325 1.90998 2.87385 1.9203C2.86445 1.93063 2.85917 1.94404 2.859 1.958V4.038C2.859 4.098 2.897 4.117 2.946 4.117H3.486C3.546 4.117 3.56 4.087 3.56 4.037V3.403ZM10.324 1.906H9.727C9.71374 1.906 9.70102 1.91127 9.69164 1.92064C9.68227 1.93002 9.677 1.94274 9.677 1.956V3.498C9.56791 3.56945 9.44041 3.60766 9.31 3.608C9.095 3.608 9.038 3.511 9.038 3.301V1.957C9.038 1.94374 9.03273 1.93102 9.02336 1.92164C9.01398 1.91227 9.00126 1.907 8.988 1.907H8.384C8.37743 1.907 8.37093 1.90829 8.36487 1.91081C8.3588 1.91332 8.35329 1.917 8.34864 1.92164C8.344 1.92629 8.34032 1.9318 8.33781 1.93787C8.33529 1.94393 8.334 1.95043 8.334 1.957V3.403C8.334 4.029 8.682 4.182 9.162 4.182C9.4139 4.17498 9.65922 4.1 9.872 3.965C9.87715 4.00801 9.8845 4.05074 9.894 4.093C9.89835 4.10094 9.9047 4.10761 9.91241 4.11235C9.92013 4.11708 9.92895 4.11972 9.938 4.12L10.323 4.118C10.3363 4.118 10.349 4.11273 10.3584 4.10336C10.3677 4.09398 10.373 4.08126 10.373 4.068V1.956C10.373 1.94274 10.3677 1.93002 10.3584 1.92064C10.349 1.91127 10.3363 1.906 10.323 1.906H10.324ZM11.986 1.836C11.7864 1.83444 11.5899 1.88622 11.417 1.986V0.923C11.417 0.916434 11.4157 0.909932 11.4132 0.903866C11.4107 0.897799 11.407 0.892287 11.4024 0.887644C11.3977 0.883002 11.3922 0.879319 11.3861 0.876806C11.3801 0.874293 11.3736 0.873 11.367 0.873H10.765C10.7584 0.873 10.7519 0.874293 10.7459 0.876806C10.7398 0.879319 10.7343 0.883002 10.7296 0.887644C10.725 0.892287 10.7213 0.897799 10.7188 0.903866C10.7163 0.909932 10.715 0.916434 10.715 0.923V4.068C10.715 4.08126 10.7203 4.09398 10.7296 4.10336C10.739 4.11273 10.7517 4.118 10.765 4.118H11.183C11.1921 4.11793 11.201 4.11538 11.2088 4.11062C11.2165 4.10586 11.2228 4.09908 11.227 4.091C11.2389 4.04369 11.2473 3.99556 11.252 3.947C11.4542 4.10736 11.7071 4.19001 11.965 4.18C12.513 4.18 12.827 3.902 12.827 2.932C12.827 1.962 12.325 1.836 11.986 1.836ZM11.751 3.607C11.6287 3.60386 11.5092 3.56943 11.404 3.507V2.511C11.4987 2.45684 11.6035 2.42279 11.712 2.411C11.927 2.392 12.134 2.457 12.134 2.969C12.134 3.509 12.04 3.615 11.751 3.607ZM5.276 1.901H4.826L4.824 1.306C4.824 1.283 4.813 1.272 4.787 1.272H4.172C4.148 1.272 4.136 1.282 4.136 1.305V1.92L3.806 2C3.7958 2.00321 3.7869 2.0096 3.7806 2.01824C3.7743 2.02688 3.77094 2.03731 3.771 2.048V2.435C3.771 2.44157 3.77229 2.44807 3.77481 2.45413C3.77732 2.4602 3.781 2.46571 3.78564 2.47035C3.79029 2.475 3.7958 2.47868 3.80187 2.48119C3.80793 2.48371 3.81443 2.485 3.821 2.485H4.136V3.415C4.136 4.107 4.62 4.175 4.948 4.175C5.06912 4.17082 5.18916 4.15065 5.305 4.115C5.31357 4.11136 5.32084 4.10521 5.32584 4.09735C5.33084 4.0895 5.33334 4.08031 5.333 4.071L5.334 3.645C5.334 3.63843 5.33271 3.63193 5.33019 3.62587C5.32768 3.6198 5.324 3.61429 5.31936 3.60964C5.31471 3.605 5.3092 3.60132 5.30313 3.59881C5.29707 3.59629 5.29057 3.595 5.284 3.595C5.258 3.595 5.19 3.605 5.121 3.605C4.9 3.605 4.825 3.503 4.825 3.369V2.485H5.276C5.28926 2.485 5.30198 2.47973 5.31136 2.47035C5.32073 2.46098 5.326 2.44826 5.326 2.435V1.951C5.326 1.94443 5.32471 1.93793 5.32219 1.93187C5.31968 1.9258 5.316 1.92029 5.31136 1.91564C5.30671 1.911 5.3012 1.90732 5.29513 1.90481C5.28907 1.90229 5.28257 1.901 5.276 1.901Z"
    fill="currentColor"
  />
</svg>
