<?xml version="1.0" encoding="UTF-8"?>
<svg version="1.1" xmlns="http://www.w3.org/2000/svg" x="0px" y="0px" width="368.588px" height="219.595px" viewBox="0 0 368.588 219.595">
	<title>Breaking Bad logo </title>
<linearGradient id="SVGID_1_" gradientUnits="userSpaceOnUse" x1="0.752" y1="0.7529" x2="109.8259" y2="109.8269">
<stop offset="0" stop-color="#15453D"/>
<stop offset="1" stop-color="#006C24"/>
</linearGradient>
<rect x="0.751" y="0.752" style="fill:url(#SVGID_1_);" width="109.074" height="109.074"/>
<path style="fill:#072508;" d="M-0.001,110.576V0h110.576v109.826v0.75H-0.001L-0.001,110.576z M109.825,109.826v-0.75V109.826L109.825,109.826z M1.499,109.076h107.574V1.502H1.499V109.076L1.499,109.076z"/>
<path style="fill:#FFFFFF;" d="M17.438,25.684H45.97c9.963,0,17.965,5.023,17.965,15.074c0,6.643-3.658,10.984-10.303,12.26v0.172c8.346,0.852,13.027,7.75,13.027,14.988c0,15.158-10.813,18.141-23.416,18.141H17.438V25.684z M28.851,50.041h13.541c5.023,0,9.625-1.961,9.625-7.752c0-4.6-2.984-7.578-9.625-7.578H28.851V50.041z M28.851,76.271h14.818c6.898,0,11.07-2.133,11.07-8.434c0-6.814-4.258-9.283-11.156-9.283H28.851V76.271z"/>
<path style="fill:#FFFFFF;" d="M73.808,43.227H84.2v5.959h0.17c2.471-4.938,7.238-6.98,13.285-6.98v10.561c-7.07,0-13.455,3.32-13.455,12.686v20.867H73.808V43.227z"/>
<path style="fill:#FFFFFF;" d="M86.274,15.782h0.893c0.912,0,1.623-0.42,1.623-1.387c0-1.039-0.602-1.676-1.641-1.676c-1.258,0-1.66,1.094-1.75,2.133l-2.426-0.512c0.4-2.406,1.932-3.664,4.357-3.664c2.023,0,3.902,1.076,3.902,3.318c0,1.441-0.693,2.262-2.043,2.607v0.037c1.551,0.363,2.334,1.477,2.354,3.063c0,2.572-2.115,3.811-4.486,3.811c-2.426,0-4.303-1.129-4.303-4.266h2.334c0,1.33,0.674,2.225,2.041,2.225c1.168,0,1.861-0.785,1.861-1.914c0-1.387-0.875-1.842-1.824-1.842h-0.893V15.782z"/>
<path style="fill:#FFFFFF;" d="M94.118,10.895h6.928l-0.236,2.152h-4.795l-0.383,2.588c0.637-0.564,1.404-0.875,2.225-0.875c2.643,0,3.902,1.951,3.902,4.248c0,2.846-1.988,4.504-4.613,4.504c-2.316,0-4.213-1.148-4.322-3.646l2.553-0.199c0.018,1.039,0.693,1.914,1.787,1.914c1.494,0,2.043-1.258,2.043-2.553c0-1.641-0.84-2.334-2.08-2.334c-0.912,0-1.422,0.4-1.768,1.186l-2.115-0.164L94.118,10.895z"/>
<path style="fill:#154F3C;" d="M128.88,63.998c-2.941,0-3.277,0.084-3.277,2.352c0,6.807,5.545,13.025,13.107,13.025c3.109,0,5.967-0.924,8.74-2.857c1.932-1.344,3.193-2.941,4.873-2.941c1.26,0,2.186,0.926,2.186,2.102c0,1.26-1.346,3.361-3.949,5.461c-4.623,3.781-8.908,5.715-14.705,5.715c-12.186,0-21.26-9.412-21.26-21.596c0-13.361,9.242-22.939,22.268-22.939c11.008,0,17.898,6.721,17.898,17.393c0,3.949-1.01,4.287-4.791,4.287h-20.502C129.216,63.998,129.048,63.998,128.88,63.998z M142.491,59.123c2.018,0,2.689-0.252,2.689-1.596c0-5.295-3.949-9.748-9.748-9.748c-5.629,0-9.41,4.453-9.41,9.748c0,1.344,0.588,1.596,2.604,1.596H142.491z"/>
<path style="fill:#154F3C;" d="M196.513,79.039c2.523,0.756,4.035,0.756,4.035,2.52c0,2.521-4.119,5.379-9.58,5.379c-3.195,0-5.379-4.453-6.219-4.453c-1.346,0-5.043,4.453-12.521,4.453c-8.318,0-13.949-5.293-13.949-13.109c0-8.99,6.723-14.537,18.824-14.537c2.184,0,4.873,0.252,7.982,0.756V55.51c0-5.041-2.27-7.814-6.303-7.814c-2.857,0-5.209,1.26-7.395,3.781c-1.766,2.018-2.857,4.369-6.387,4.369c-2.27,0-3.697-1.596-3.697-4.033c0-4.873,6.471-9.494,17.73-9.494c6.471,0,11.008,1.764,13.445,4.873c2.186,2.773,2.354,6.975,2.354,13.025v13.779C194.833,76.938,195.253,78.703,196.513,79.039z M178.866,64.754c-6.219,0-9.748,2.941-9.748,7.73c0,4.453,3.109,7.479,8.236,7.479c5.797,0,7.73-2.438,7.73-8.15V65.51C182.815,65.006,180.716,64.754,178.866,64.754z"/>
<path style="fill:#154F3C;" d="M217.56,57.023c0,1.764,0.084,2.604,0.84,2.604c0.42,0,2.186-1.092,4.875-3.529c3.445-3.193,5.377-5.125,5.377-6.133c0-1.094-3.193-1.01-3.193-3.361c0-2.857,3.445-3.445,10.588-3.445c5.211,0,7.814,1.008,7.814,3.193c0,3.277-4.033,2.268-7.563,4.369c-1.68,1.008-3.529,2.941-5.881,5.293c-1.178,1.178-1.85,1.934-1.85,2.438c0,0.84,1.512,2.773,4.201,6.303c5.967,7.73,10,12.184,12.018,13.697c2.856,2.016,6.553,1.344,6.553,4.201c0,2.52-2.688,3.445-8.57,3.445c-2.438,0-4.033-0.252-4.537-0.42c-2.354-0.842-4.285-3.865-7.73-8.236c-7.395-9.41-11.262-14.369-12.102-14.369c-0.756,0-0.84,0.674-0.84,2.27c0,0.504,0,1.092,0,1.848c0,7.059,0.168,11.094,1.176,12.27c1.178,1.344,4.371,0.924,4.371,3.613c0,2.438-3.109,3.025-9.832,3.025c-7.479,0-10.672-0.42-10.672-3.277c0-1.934,1.764-1.934,3.193-2.689c1.764-1.008,2.1-4.033,2.1-9.748c0-3.193-0.084-7.059-0.084-11.932c0-1.848,0-3.613,0-5.293c0-12.521-0.084-17.328-1.176-18.588c-0.672-0.756-2.102-0.924-3.865-1.514c-1.346-0.42-1.934-0.756-1.934-2.016c0-1.765,1.598-2.437,4.707-3.529c4.873-1.682,8.57-2.186,10.166-2.186c1.85,0,2.354,1.094,2.354,3.613c0,4.453-0.504,8.923-0.504,17.328V57.023z"/>
<path style="fill:#154F3C;" d="M268.402,72.064c0,4.537,0.252,7.143,1.68,7.898c1.934,1.092,3.781,0.84,3.781,3.109c0,2.438-3.025,3.025-9.748,3.025c-7.479,0-10.755-0.42-10.755-3.277c0-1.934,1.766-1.934,3.192-2.689c1.682-0.924,2.018-3.025,2.018-6.723c0-1.764-0.084-3.781-0.084-6.303c0-1.596,0-3.107,0-4.453c0-6.891-0.084-10.504-1.514-11.26c-2.099-1.092-4.62-0.924-4.62-3.025c0-1.344,1.177-2.268,3.445-3.193c5.798-2.268,10.167-2.855,11.007-2.855c1.682,0,2.186,1.176,2.186,3.613c0,1.092,0,2.604-0.084,4.453l-0.336,10.924C268.486,65.006,268.402,68.619,268.402,72.064z M262.855,26.663c3.865,0,6.471,2.438,6.471,5.462c0,3.025-2.857,5.629-6.975,5.629c-3.781,0-6.387-2.268-6.387-5.209C255.965,29.436,258.906,26.663,262.855,26.663z"/>
<path style="fill:#154F3C;" d="M305.23,42.318c4.368,0,8.318,2.1,10.755,4.957c3.362,4.033,3.613,8.99,3.613,15.713c0,3.193,0,5.127,0,5.799c0,2.016-0.084,3.697-0.084,5.209c0,3.361,0.253,5.211,1.934,6.135c1.429,0.756,3.194,0.756,3.194,2.689c0,2.857-3.194,3.193-10.504,3.193c-6.891,0-10.084-0.42-10.084-2.941c0-2.27,1.847-2.018,3.78-3.109c1.513-0.84,1.764-3.697,1.764-8.906c0-13.529-0.168-20.504-7.981-20.504c-3.025,0-6.052,1.932-7.563,5.041c-1.596,3.193-1.68,8.824-1.68,16.975c0,4.201,0.084,6.555,1.595,7.395c1.935,1.092,3.782,0.84,3.782,3.109c0,2.438-3.025,3.025-9.749,3.025c-7.478,0-10.755-0.42-10.755-3.277c0-1.934,1.766-1.934,3.192-2.689c1.683-0.924,2.019-3.025,2.019-6.723c0-1.764-0.084-3.781-0.084-6.303c0-1.596,0-3.107,0-4.453c0-6.891-0.085-10.504-1.515-11.26c-2.1-1.092-4.62-0.924-4.62-3.025c0-1.344,1.175-2.268,3.445-3.193c5.462-2.1,9.495-2.688,10.587-2.688c1.596,0,2.271,0.756,2.271,2.688v2.354c0,0.252,0,0.42,0,0.504c0,0.336,0,0.504,0.335,0.504c0.169,0,0.336-0.084,0.421-0.168l1.007-0.924C296.827,45.174,299.095,42.318,305.23,42.318z"/>
<path style="fill:#154F3C;" d="M327.915,58.535c0-9.244,7.731-16.217,18.57-16.217c2.941,0,6.639,0.672,11.092,1.68c2.271,0,4.705-1.176,7.983-3.445c1.175,0.756,1.85,1.766,1.85,2.773c0,2.352-1.767,4.705-5.212,6.471c1.177,2.268,1.767,4.453,1.767,6.975c0,9.242-7.396,15.965-18.825,15.965c-3.107,0-5.964-0.42-8.57-1.344c-1.176,1.26-1.764,2.352-1.764,3.361c0,2.771,2.771,3.949,8.318,3.949c4.286,0,8.655-0.926,13.194-0.926c7.982,0,12.267,3.361,12.267,9.328c0,8.74-9.411,15.883-23.696,15.883c-11.596,0-18.991-5.545-18.991-11.346c0-3.109,2.018-5.209,6.051-7.646c-3.36-1.176-5.21-3.445-5.21-6.303c0-2.939,2.101-5.713,6.218-8.234C329.595,66.602,327.915,62.904,327.915,58.535z M335.143,90.803c0,3.781,4.117,6.641,11.343,6.641c8.066,0,13.275-3.615,13.275-7.648c0-2.689-1.931-4.285-5.628-4.285c-2.606,0-6.472,0.84-11.428,0.84c-1.683,0-3.445-0.084-5.379-0.336C335.814,87.441,335.143,88.955,335.143,90.803z M345.73,67.189c4.788,0,8.402-3.865,8.402-9.662c0-5.967-3.53-9.832-8.318-9.832c-4.371,0-7.9,3.949-7.9,9.748C337.914,63.408,341.19,67.189,345.73,67.189z"/>
<path style="fill:#154F3C;" d="M255.647,190.841c0-0.756-0.168-1.092-0.338-1.092c-0.252,0-1.259,0.924-3.191,2.352c-3.276,2.438-6.471,3.697-10.084,3.697c-10.42,0-18.066-8.15-18.066-20.754c0-13.95,8.57-23.527,20.67-23.527c5.884,0,9.497,2.521,10.168,2.521c0.504,0,0.588-0.756,0.588-2.102v-3.041c0-3.866-0.504-5.128-2.688-5.883c-2.017-0.672-3.78-0.672-3.78-2.606c0-1.848,1.764-2.688,5.293-3.948c3.695-1.345,6.637-1.849,8.738-1.849c1.932,0,2.688,1.008,2.688,3.529c0,1.429-0.504,8.925-0.504,26.569c0,14.369,0.084,21.68,1.262,22.52c1.848,1.344,5.209,0.504,5.209,3.025c0,2.016-2.27,2.689-6.639,4.117c-2.941,1.008-5.967,1.344-7.059,1.344c-1.596,0-2.267-0.84-2.267-2.771V190.841z M255.226,166.64c0-2.352,0-3.95-0.84-5.042c-1.763-2.353-5.376-4.283-9.074-4.283c-6.135,0-10.42,5.291-10.42,14.536c0,9.998,4.873,16.217,11.008,16.217c5.965,0,9.326-3.277,9.326-9.746V166.64z"/>
<linearGradient id="SVGID_2_" gradientUnits="userSpaceOnUse" x1="218.917" y1="218.8477" x2="109.8402" y2="109.7709">
<stop offset="0" stop-color="#15453D"/>
<stop offset="1" stop-color="#006C24"/>
</linearGradient>
<rect x="109.839" y="109.771" style="fill:url(#SVGID_2_);" width="109.078" height="109.075"/>
<path style="fill:#072508;" d="M109.087,219.595V109.021h110.58v109.825v0.748H109.087L109.087,219.595z M218.917,218.847v-0.75V218.847L218.917,218.847z M110.587,218.097h107.58l-0.002-107.575H110.587V218.097L110.587,218.097z"/>
<path style="fill:#FFFFFF;" d="M118.001,134.705h28.525c9.965,0,17.969,5.025,17.969,15.073c0,6.642-3.662,10.98-10.307,12.26v0.171c8.348,0.85,13.031,7.747,13.031,14.983c0,15.16-10.814,18.145-23.42,18.145h-25.799V134.705z M129.411,159.059h13.539c5.021,0,9.623-1.959,9.623-7.747c0-4.598-2.982-7.581-9.623-7.581h-13.539V159.059z M129.411,185.286h14.813c6.9,0,11.076-2.129,11.076-8.432c0-6.811-4.26-9.279-11.158-9.279h-14.73V185.286z"/>
<path style="fill:#FFFFFF;" d="M210.392,188.097c0,4.428,1.021,6.303,1.615,7.24h-10.984c-0.678-1.023-1.02-2.813-1.02-3.92c-4.002,3.236-8.689,4.938-14.055,4.938c-8.174,0-14.646-5.193-14.646-13.535c0-8.434,6.727-12.184,13.115-13.461l4.342-0.848c3.748-0.766,8.604-1.619,11.244-2.555v-1.277c0-4.258-3.662-5.449-8.178-5.449c-6.045,0-8.006,1.787-8.006,6.473l-10.389-0.428c0-10.132,8.941-14.045,18.395-14.045c9.287,0,18.566,1.873,18.566,14.131V188.097z M200.003,173.79c-1.359,0.682-3.066,1.193-4.941,1.531l-5.707,1.195c-3.916,0.766-7.15,1.871-7.15,5.959c0,3.238,2.977,5.367,6.727,5.367c4.854,0,11.072-2.385,11.072-7.918V173.79z"/>
<path style="fill:#FFFFFF;" d="M192.704,119.196h6.93l-0.238,2.151h-4.795l-0.383,2.59c0.639-0.566,1.404-0.876,2.225-0.876c2.645,0,3.902,1.951,3.902,4.25c0,2.843-1.988,4.503-4.613,4.503c-2.316,0-4.213-1.15-4.322-3.647l2.553-0.2c0.018,1.039,0.693,1.914,1.787,1.914c1.496,0,2.043-1.257,2.043-2.553c0-1.641-0.84-2.334-2.08-2.334c-0.91,0-1.422,0.401-1.768,1.186l-2.115-0.163L192.704,119.196z"/>
<path style="fill:#FFFFFF;" d="M207.823,122.442c-0.072-0.875-0.637-1.422-1.477-1.422c-1.77,0-2.17,2.313-2.17,3.772h0.037c0.309-0.455,1.021-1.147,2.424-1.147c2.316,0,3.666,1.659,3.666,4.084c0,2.299-1.678,4.085-4.139,4.085c-3.611,0-4.432-3.228-4.432-6.109c0-3.92,1.531-6.729,4.631-6.729c2.08,0,3.465,1.077,3.813,3.154L207.823,122.442z M204.358,127.729c0,1.276,0.639,2.042,1.807,2.042c1.166,0,1.805-0.766,1.805-2.042s-0.639-2.042-1.805-2.042C204.997,125.688,204.358,126.453,204.358,127.729z"/>
</svg>
