<svg xml:space="preserve" width="250" height="368.796" xmlns="http://www.w3.org/2000/svg"><path d="M0 0h250v368.796H0Z" style="fill:#020a0a;fill-opacity:1;fill-rule:nonzero;stroke:none;stroke-width:3.83999"/><path d="M245.631 234.965V4.425H4.409v230.54h51.25c5.75-2.308 46.994-20.696 55.236-75.013a30.856 30.856 0 0 0-4.255-20.619 31.82 31.82 0 0 0 11.27-16.464c3.028-8.771 2.376-22.658-5.674-29.006 0 0 7.053 9.04 1.84 26.467a27.98 27.98 0 0 1-13.493 15.387l-7.666 6.809s-3.22 1.115-4.676 10.848a20.179 20.179 0 0 0 .536 14.618c.575 1.039 4.37 6.04 1.955 8.655a44.831 44.831 0 0 1-7.858 11.54 59.149 59.149 0 0 1-10.311 5.733c-.805 0-1.189 0-1.534-.808 1.84-3.5 4.907-14.772 1.802-19.542 0 0-5.175.385-11.04 10.925a33.677 33.677 0 0 0-2.491 7.463l-1.725 1.385s-10.388-7.156-16.636-10.464l.076-9.77-4.561-8.502a115.779 115.779 0 0 0 5.021-19.927c2.722-10.271 7.13-40.007 7.13-40.007l-4.6-12.348 22.04-22.504a243.108 243.108 0 0 0-47.607 2.5s16.79-15.733 62.519-23.08C68.806 41.97 38.562 33.852 38.562 33.852a158.39 158.39 0 0 1 80.497 6.924c1.84-2.077-23-23.773-23-23.773 38.332 6.27 58.035 27.928 58.035 27.928 1.495-10.31-5.136-25.697-5.136-25.697 15.742 9.26 27.07 24.527 31.393 42.315 4.102-6.155 3.834-25.389 3.834-25.389a48.17 48.17 0 0 1 12.649 24.043 148.45 148.45 0 0 1 2.645 25.812c5.175-5.578 9.583-20.734 9.583-20.734a55.287 55.287 0 0 1 5.596 30.89 126.571 126.571 0 0 1-3.833 20.734c5.558-2.962 12.496-16.618 12.496-16.618a94.281 94.281 0 0 1-7.053 53.086c5.98-1.808 14.72-17.734 14.72-17.734 1.456 36.276-14.49 58.857-14.49 58.857 7.322-4.27 14.796-16.773 14.796-16.773a144.936 144.936 0 0 1-10.196 50.01h-34.192c13.646-40.316 9.085-111.02-27.944-143.45 30.14 44.336 36.373 100.8 16.636 150.681zM56.655 164.222a5.277 5.277 0 0 1-2.568 6.924 5.178 5.178 0 0 1-6.018-3.847h-.307c.043.6.161 1.197.345 1.77 1.116 3.208 4.612 4.905 7.809 3.79 3.2-1.12 4.89-4.629 3.775-7.84a6.14 6.14 0 0 0-4.684-4.028 14.842 14.842 0 0 1 1.648 3.077" style="fill:#fff;fill-opacity:1;fill-rule:nonzero;stroke:none;stroke-width:3.83999"/><path d="M4.408 323.134H245.63v3.847H4.408Zm0-46.162H245.63v3.847H4.408Z" style="fill:#fff;fill-opacity:1;fill-rule:nonzero;stroke:none;stroke-width:3.83999"/><path d="M19.167 212.077h2.415c1.226 0 2.568.269 2.568 1.808 0 1.538-1.457 1.962-3.067 1.962h-1.916zm-1.802 10.31h1.802v-5.079h1.955l3.181 5.078h1.955L23 217.193a3.036 3.036 0 0 0 3.07-2.997c0-.064 0-.13-.004-.196 0-2.27-1.303-3.385-4.101-3.385h-4.523zm-4.331-5.925c.191-4.585 4.047-8.148 8.617-7.955 4.569.192 8.118 4.062 7.927 8.647-.185 4.432-3.807 7.94-8.226 7.963-4.573.029-8.3-3.673-8.326-8.263 0-.13.004-.261.007-.392m-1.801 0c-.065 5.586 4.396 10.168 9.966 10.233 5.566.064 10.13-4.416 10.196-10.002.064-5.59-4.4-10.167-9.966-10.232h-.077c-5.546-.043-10.077 4.435-10.12 10.001z" style="fill:#1d1d1b;fill-opacity:1;fill-rule:nonzero;stroke:none;stroke-width:3.83999"/><path d="M60.642 106.25c4.944 4.77 8.011 4.655 9.43 2.308 6.899-11.54 7.167-12.925 4.637-14.695z" style="fill:#fff;fill-opacity:1;fill-rule:nonzero;stroke:none;stroke-width:3.83999"/><path d="M188.708 351.678a7.27 7.27 0 0 0 0 1.577 6.25 6.25 0 0 0 2.262 5.001 16.098 16.098 0 0 0 10.35 2.655 21.492 21.492 0 0 0 5.673-.962 9.794 9.794 0 0 0 7.32-6.848c.208-.554.312-1.138.307-1.73a5.544 5.544 0 0 0-3.143-4.54s-2.032-1.077-5.673-2.846c-1.955-1-2.837-1.885-2.607-2.732a1.878 1.878 0 0 1 2.07-1.423c1.994 0 2.99.654 2.99 1.693.036.203.036.41 0 .615l-.46 1.385h9.89a6.616 6.616 0 0 0 0-.923 6.187 6.187 0 0 0-2.262-4.963 15.901 15.901 0 0 0-10.388-2.692 27.196 27.196 0 0 0-5.75.73c-3.833 1.078-6.324 2.886-6.976 5.425a6.656 6.656 0 0 0-.421 2.154 5.582 5.582 0 0 0 3.181 4.693c.537.308 2.492 1.192 5.865 2.654 2.147.923 3.182 1.77 3.182 2.655a2.05 2.05 0 0 1-.192.769 3.222 3.222 0 0 1-2.99 2c-1.993 0-2.99-.577-2.99-1.73a1.555 1.555 0 0 1 0-.578l.69-2.039zm5.827-57.702-7.283 20.31h22.577l2.07-5.808h-12.381l1.111-3.193h6.593l2.109-5.808h-6.67l1.303-3.655h12.382l2.146-5.809h-29.937zm-36.339 56.894a9.5 9.5 0 0 0-.537 2.885c0 3.193 2.108 5.386 6.363 6.579a24.59 24.59 0 0 0 6.325.884 20.383 20.383 0 0 0 5.98-1.192 12.855 12.855 0 0 0 8.05-8.079l.651-1.808h-10.35l-.766 2.193a5.19 5.19 0 0 1-2.261 3.5 3.608 3.608 0 0 1-1.572.5c-1.955 0-2.952-.654-2.952-1.692a1.995 1.995 0 0 1 0-.654l3.412-9.848a5.268 5.268 0 0 1 2.262-3.539 4.422 4.422 0 0 1 1.571-.5c1.955 0 2.952.692 2.952 1.731.036.204.036.411 0 .616l-1.342 3.847h10.12l.268-.808c.33-.927.514-1.9.536-2.885 0-3.155-2.108-5.348-6.363-6.579a26.441 26.441 0 0 0-6.324-.884 19.16 19.16 0 0 0-5.788 1.23 12.682 12.682 0 0 0-8.05 8.08zm14.298-43.584a1.534 1.534 0 0 1-.23.77 3.182 3.182 0 0 1-2.99 2c-1.955 0-2.952-.655-2.952-1.732a1.773 1.773 0 0 1 0-.615l.69-2h-9.851a11.53 11.53 0 0 0 0 1.577 6.182 6.182 0 0 0 2.262 4.962 15.902 15.902 0 0 0 10.388 2.693 22.83 22.83 0 0 0 5.788-.962 9.977 9.977 0 0 0 7.36-6.847 5.9 5.9 0 0 0 .306-1.731 5.622 5.622 0 0 0-3.105-4.578l-5.673-2.847c-1.955-.961-2.837-1.885-2.645-2.693a1.918 1.918 0 0 1 2.108-1.461c1.955 0 2.952.654 2.952 1.73.036.204.036.412 0 .616l-.46 1.385h9.89a3.97 3.97 0 0 0 0-.923 6.128 6.128 0 0 0-2.262-5 15.818 15.818 0 0 0-10.35-2.694 29.554 29.554 0 0 0-5.788.77c-3.833 1.038-6.286 2.846-6.976 5.424a6.56 6.56 0 0 0-.384 2.154 5.463 5.463 0 0 0 3.143 4.655c.537.346 2.53 1.23 5.903 2.692 2.109.885 3.182 1.77 3.182 2.655m-25.606 32.544-7.206 20.196h9.506l8.318-23.774h-15.984zm-43.966 0-7.398 19.927h9.046l4.102-11.541h.958v11.54h6.555l7.666-11.77.92.46-4.063 11.31h9.314l8.165-23.08h-13.8l-7.436 10.54-.575-10.54H98.283Zm.613-31.082a1.768 1.768 0 0 1 0-.616l3.488-10.002a5.385 5.385 0 0 1 2.3-3.5 3.435 3.435 0 0 1 1.534-.5c1.993 0 2.99.577 2.99 1.73.035.205.035.412 0 .616l-3.412 9.887a5.462 5.462 0 0 1-2.3 3.5 3.814 3.814 0 0 1-1.533.5c-1.994 0-2.99-.654-2.99-1.731m-9.66-.885c0 3.182 2.108 5.374 6.325 6.578a26.698 26.698 0 0 0 6.363 1.116 19.913 19.913 0 0 0 5.75-1.231 12.863 12.863 0 0 0 8.088-8.04l2.146-6.386c.365-.93.56-1.923.575-2.923 0-3.155-2.146-5.347-6.363-6.54a24.879 24.879 0 0 0-6.363-.885 20.028 20.028 0 0 0-5.75 1.193 12.904 12.904 0 0 0-8.088 8.078l-2.146 6.386a8.257 8.257 0 0 0-.537 2.885M75.323 354.64a2.003 2.003 0 0 1 0-.654l3.411-9.848a5.474 5.474 0 0 1 2.3-3.539 3.882 3.882 0 0 1 1.533-.5c1.994 0 2.952.692 2.952 1.731.036.204.036.411 0 .616l-3.412 9.886a5.19 5.19 0 0 1-2.261 3.5 3.608 3.608 0 0 1-1.572.5c-1.955 0-2.951-.654-2.951-1.692m-8.932-3.847c-.325.927-.51 1.9-.536 2.885 0 3.193 2.108 5.386 6.363 6.578 2.062.57 4.186.866 6.325.885a20.368 20.368 0 0 0 5.788-1.115 12.984 12.984 0 0 0 8.088-8.079l2.146-6.385c.33-.928.514-1.9.537-2.886 0-3.154-2.109-5.347-6.363-6.578a26.442 26.442 0 0 0-6.325-.885 19.159 19.159 0 0 0-5.788 1.231 12.733 12.733 0 0 0-8.05 8.079zm-8.893-14.695a27.112 27.112 0 0 0-6.363-.885c-1.97.108-3.91.524-5.75 1.231a12.756 12.756 0 0 0-8.088 8.079l-2.184 6.347c-.373.973-.58 2-.614 3.04 0 3.192 2.147 5.385 6.363 6.577 2.074.57 4.213.866 6.363.885a20.294 20.294 0 0 0 5.75-1.193 12.904 12.904 0 0 0 8.088-8.078l.613-1.808H51.48l-.728 2.193a5.385 5.385 0 0 1-2.3 3.5 3.63 3.63 0 0 1-1.533.5c-1.993 0-2.99-.654-2.99-1.692a2.01 2.01 0 0 1 0-.655l3.412-9.847a5.474 5.474 0 0 1 2.3-3.54 3.858 3.858 0 0 1 1.533-.5c1.993 0 2.99.578 2.99 1.732.036.203.036.411 0 .615l-1.38 3.847h10.12l.268-.808c.348-.923.533-1.9.537-2.885 0-3.154-2.108-5.347-6.325-6.578m36.722-46.162H84.063l-3.335 9.31h-5.596l3.258-9.31H60.949l5.98 3.847-7.283 20.311H69.88l3.182-9.117h5.596l-3.258 9.117h10.196zm11.691-39.2c.05.217.05.44 0 .655l-2.913 8.155a5.207 5.207 0 0 1-2.3 3.54c-.468.272-.993.43-1.533.46h-2.377l5.098-14.502h1.189c1.993 0 2.99.654 2.99 1.693m8.93 3.847c.334-.954.518-1.95.538-2.962 0-3-1.994-5.117-5.98-6.386a22.958 22.958 0 0 0-5.941-1.077H85.903l5.942 3.847-7.283 20.35h14.604a20.772 20.772 0 0 0 5.673-1.232 13.21 13.21 0 0 0 8.165-8.078zm19.167 8.193h-5.98l6.44-10.078zm-.384 5.77h10.656l-.728-24.311H121.82l5.98 3.847-13.685 20.35h10.541l1.648-2.655h7.322zm12.42 29.121c-.029.408-.146.8-.345 1.154-.192.454-.53.835-.959 1.077a5.888 5.888 0 0 1-2.261.347h-2.99l1.533-4.424h2.53a2.538 2.538 0 0 1 1.802.538c.39.324.613.8.613 1.308m7.667-5.231a10.978 10.978 0 0 0-7.284-2.424h-20.699l5.942 3.847-7.245 20.35h10.196l2.875-8.233 3.22 8.233h9.315l-3.335-8.463a11.49 11.49 0 0 0 5.136-1.924 7.681 7.681 0 0 0 2.99-4.231 8.47 8.47 0 0 0 .46-2.693 6.318 6.318 0 0 0-1.571-4.616m17.9-40.546a2.523 2.523 0 0 1-.345 1.154c-.18.462-.52.846-.958 1.077a5.807 5.807 0 0 1-2.261.347h-2.875l1.533-4.386h2.491a2.698 2.698 0 0 1 1.84.5c.38.327.591.808.575 1.308m8.817 1.808c.295-.854.448-1.75.46-2.654a6.48 6.48 0 0 0-1.572-4.386 11.059 11.059 0 0 0-7.321-2.423h-20.7l5.98 3.847-7.283 20.35h10.235l2.875-8.233 3.181 8.232h9.315l-3.297-8.501a10.93 10.93 0 0 0 5.137-2.116 8.03 8.03 0 0 0 2.99-4.231m26.257 3.039 11.5-12.503h-11.155l-9.008 9.848 3.411-9.77h-17.402l5.941 3.846-7.283 20.35h10.235l3.833-11.54 2.606 11.54h10.235z" style="fill:#fff;fill-opacity:1;fill-rule:nonzero;stroke:none;stroke-width:3.83999"/></svg>